<mxfile host="app.diagrams.net" modified="2023-10-16T16:38:23.479Z" agent="Mozilla/5.0 (Windows NT 10.0; Win64; x64) AppleWebKit/537.36 (KHTML, like Gecko) Chrome/118.0.0.0 Safari/537.36" etag="etaw-eze9dW6xTJRaw2i" version="22.0.4" type="device">
  <diagram name="Page-1" id="Qlrd1ySZ5BPv6pKEvVEK">
    <mxGraphModel dx="688" dy="473" grid="1" gridSize="10" guides="1" tooltips="1" connect="1" arrows="1" fold="1" page="1" pageScale="1" pageWidth="850" pageHeight="1100" math="0" shadow="0">
      <root>
        <mxCell id="0" />
        <mxCell id="1" parent="0" />
        <mxCell id="qoSOczia6jzgLVWpltz3-64" value="" style="rounded=1;whiteSpace=wrap;html=1;" vertex="1" parent="1">
          <mxGeometry x="15" y="449" width="565" height="41" as="geometry" />
        </mxCell>
        <mxCell id="qoSOczia6jzgLVWpltz3-63" value="" style="rounded=1;whiteSpace=wrap;html=1;" vertex="1" parent="1">
          <mxGeometry x="241.62" y="500" width="120" height="150" as="geometry" />
        </mxCell>
        <mxCell id="qoSOczia6jzgLVWpltz3-59" value="" style="endArrow=classic;html=1;rounded=0;exitX=0;exitY=0.5;exitDx=0;exitDy=0;entryX=1;entryY=0.75;entryDx=0;entryDy=0;" edge="1" parent="1" source="qoSOczia6jzgLVWpltz3-57" target="qoSOczia6jzgLVWpltz3-45">
          <mxGeometry width="50" height="50" relative="1" as="geometry">
            <mxPoint x="300" y="530" as="sourcePoint" />
            <mxPoint x="350" y="480" as="targetPoint" />
          </mxGeometry>
        </mxCell>
        <mxCell id="qoSOczia6jzgLVWpltz3-61" value="" style="rounded=1;whiteSpace=wrap;html=1;" vertex="1" parent="1">
          <mxGeometry x="450" y="550" width="97" height="50" as="geometry" />
        </mxCell>
        <mxCell id="qoSOczia6jzgLVWpltz3-49" value="" style="rounded=1;whiteSpace=wrap;html=1;" vertex="1" parent="1">
          <mxGeometry x="365" y="20" width="205" height="190" as="geometry" />
        </mxCell>
        <mxCell id="qoSOczia6jzgLVWpltz3-48" value="" style="rounded=1;whiteSpace=wrap;html=1;" vertex="1" parent="1">
          <mxGeometry x="20" y="40" width="240" height="180" as="geometry" />
        </mxCell>
        <mxCell id="qoSOczia6jzgLVWpltz3-47" value="" style="rounded=1;whiteSpace=wrap;html=1;" vertex="1" parent="1">
          <mxGeometry x="10" y="330" width="570" height="70" as="geometry" />
        </mxCell>
        <mxCell id="qoSOczia6jzgLVWpltz3-1" value="" style="shape=cylinder;whiteSpace=wrap;html=1;boundedLbl=1;backgroundOutline=1;" vertex="1" parent="1">
          <mxGeometry x="40" y="80" width="60" height="80" as="geometry" />
        </mxCell>
        <mxCell id="qoSOczia6jzgLVWpltz3-2" value="" style="shape=image;verticalLabelPosition=bottom;labelBackgroundColor=default;verticalAlign=top;aspect=fixed;imageAspect=0;image=https://open.canada.ca/GCWeb/assets/sig-blk-en.svg;" vertex="1" parent="1">
          <mxGeometry x="30" y="50" width="214.29" height="20" as="geometry" />
        </mxCell>
        <mxCell id="qoSOczia6jzgLVWpltz3-3" value="Water Survey of Canada Weather Stations (MPOML)" style="text;html=1;strokeColor=none;fillColor=none;align=center;verticalAlign=middle;whiteSpace=wrap;rounded=0;" vertex="1" parent="1">
          <mxGeometry x="20" y="170" width="110" height="30" as="geometry" />
        </mxCell>
        <mxCell id="qoSOczia6jzgLVWpltz3-5" value="" style="shape=cylinder3;whiteSpace=wrap;html=1;boundedLbl=1;backgroundOutline=1;size=15;" vertex="1" parent="1">
          <mxGeometry x="165" y="80" width="60" height="80" as="geometry" />
        </mxCell>
        <mxCell id="qoSOczia6jzgLVWpltz3-6" value="Veritical Profile Data (ZXS)" style="text;html=1;strokeColor=none;fillColor=none;align=center;verticalAlign=middle;whiteSpace=wrap;rounded=0;" vertex="1" parent="1">
          <mxGeometry x="160" y="170" width="70" height="30" as="geometry" />
        </mxCell>
        <mxCell id="qoSOczia6jzgLVWpltz3-10" value="" style="shape=image;verticalLabelPosition=bottom;labelBackgroundColor=default;verticalAlign=top;aspect=fixed;imageAspect=0;image=data:image/png,iVBORw0KGgoAAAANSUhEUgAAATYAAACiCAMAAAD84hF6AAABgFBMVEX///8AS47///3+/v////z2tAD15Kz9+d/9//////r//vz8//0AS4/7//8APYb8//v+uRMARIYAP4gARIwAOoEAO4gATIzm7u8ASI4+apbw9/YAPYRlhqmivcYAQ4n0+v2LorvS3+cVToj+xEf+zGgAN4TD0NoAP4E5YpG0xdT747D+xlL7tAD/wTr/vCf+03v++ewAQX4AQZEATor+yWH92ZP83aH/vS//x1b96MH0uyQAMX98mblbfqD62IT70HD88M2YrsMiWI4AMXdggKkAJm757cL48srxxEjy4Zr+/OTwzVv5wjT9/vD067T00Vz/1ojz1nnx0olJcJO4xs/66tD63YXO1dn61ZX/4Li61dwgUHmHorR4krR0jqWessz48bN0nbRTc6Zdhp4AHnPhvXVNb4Hj1qR5hm2hkWbW5uTltTd1dmersKRCYHlUaWSai0tqhI7f28+4ql/Doka9xKqCiF3KrTmos7vn59blvFTk3724oGdFYIMtW5YAGWlqJSmcAAAbLklEQVR4nO1ci1/a2pbe7ETJTgiRZyAgEFAgoDwUERCEoOVYqx1a9bSnRTs9PfPyzsyd99x53DP/+qy1A4rWVk+P7bnzm3ztDwLm+WU9vrX2DoS4cOHChQsXLly4cOHChQsXLly4cOHChQsXLly4cOHChQsXLly4cOHChQsXLly4cOHChQsXLly4cOHChQsXvy0oo5IsUolIVxAJFQSBUpH+1if3JwsqypIkSCo79g5GiyXEaDSo1RghgqC6xN0JMClKtOPvFvsHRwuApU4FsLC20Dl48XR0qKmSy9sNUFkWRIFqmvfps87CwtoSxzZgfZsvrq2tLTS2BkzSiCxKxKWPgwkalaTDp43K2pQyTts64uojMHew5ZUUEWMfdZkD2jRBG1W3K9sdTpDzurSeQ1RwsTKlrlJ5NjpWJSa6tImSLLHFg05n+2hqWx2Ht/UywKHtqDN1Wwh35eaxqgkC+f8c6UBbqFR7frC2hqStT23rAAyuspRrNVqtFv/mwDE3dNrt7YWjJmMCgxj3/xaCSJXBMwxoFe6T6+iPlT+D10oltwJoYDbtPHOMDVfAJLFwMFAEWfutT/63AUZ2QTv+HqQG0pbLlcutMrK01O9sw1u5CljBL9b7S/iWa5WBOJ5bF/peVZCo8Ftfw28AQRJENjhYmIb7I/DIRmMd+ekfbANvrTFgBRnkNrdUgRVmwW5poTNiQPovjm8QFb7GtXxDMFnTni5cKY5Oa2Wl329UkKYXFdBsjS1Af7uz3XnZgixbKffBZ8tXimThZU1jD+cAtTTUal/xer4RVHr8bGEmODqVpXK/X92tQszfbi12IPivNJuvm/11SBWLOSSvX632we64R3eWFiDCedWHWxvQRp0q9yte0lcHk2ThsOw4aOVggUew6nh3a6uFCXWUO8rlVkrNZrMP0az8HDNBbnc8rlbLmC2WDhwB3PlOog9LDFjPilefOIH3bPGn6csKlbzrFad0WjrIIW+d6nhrq1kF1nLfrYBkW8FSvpor5/ojoG2939zaGlePMModHE0Lh/XnKn2I9VCSts+TyV7v5OSkl8zkFSLL0784wpnO9DOdVm6SMlvidorfwFd0TmZLEjdgvAVYTvPV5k9G+hqSnJHREUg1h7fKi04Holl5q9ksNQ8g7H/3EsJ/v1T6oVSFNNAsAXe5103gbQVzxXq/MnXVSqXEHkKbRKVTOx7cKGTyltULhzctVSVoUSCA0AgplafXKHNLVDRFxO+ugB0s/Mwt1jFERYF1REnTJFUiTITCmoqKIjl/h/U1TZQflzM4De0MygIwrA5WTJWD7/HD+m6pWSr1W+XW6HljZaXaBlQbjcagWW6Uucs2c1jff3/klFtc/C6q2v3E8W6d7g8NDTQLMxsN2wTrk7lVsLEHb9rU3kRBN68356+vNOKYHqUKXgFEZ11XcTdUma7FwEbhYBK3WvbIYVRiaGsV9MYyyDCgbfvpCnxaR/tqvwbGSt7+Sr/aHrTbu0Df4etGo7VV+qFZqiJT1V2u4pa4+K10nkvCQ+Ib0FIIZYE2UWNvgp5wmpD022ERAI47PJkASWgcr5LnXTtznjwlVvh8wmE7b/s9cnEOX3XPLwymSqLxrjgsDgvDc51Ieu+8O+l2L3RujlbyPayWnDwqaXAFsjrorHWwLCg3WhDhtjsHozJ8bDVL7Xap3+83j3er1fHZ2WAwrvZfH4+hXMBAt9gAplp/vo4ipQPqmBcNndGDsgKYWT2WBbKIIqvFqD9PBDCW95FUV4XLtnfC3WP0W+NyuZDasU1d7O4k31mWlVyNwquVie/YRDd7/kgxr2uKwvThW1MjqtnbWSZi2rT2ggn70pCQNt1MRlbjsAv1ETmjAhUP17ELCRfeWOmvHGFbbfd5OddqvRy12wNgrKk1x+OtwdngbGs8/gE47L9sn43aW+VWLjfqb2OAK680sGhYryx1BlgwPIC2wIw2Eo+F82BdKjVXC6dM0zRyGlzt4iXLCtkPDVUqqkMLNxKXI0OVodPFLcjHZiFogSeKUrqYuBQVOLAa70J+EUl8I04YU9BdGblM+C2q0keMbRCdVebotaMWsFYd97FCzw2+R7lbAqZKwNhxG6Su1+s9g7ez2tbuuDQYtJ9XgalFrkYqLdRwLawZ1hZyh9L9db0kc9ow9jB1GAjrWN1RMwzXh9pELYbqyCl4WTIYB2b1HpEwui/7h2kGwYxkLFBNZjiSpwyEc34nThQmCIzkL6De0WCrEyIoihMfzWA4Lz1qd0vQpOOX09Igh6yNm/0jiHEva/0GeCc6JlB17G1uNb212hmkgZp3Cy3v7KwJTFUPV8DEOg3UcCsNp9JaqB4L954h0FbnsQ0uLZ9Y7UI9i7RF/Hm4OkiAyRAyiWaVTMRxfckpQbi1IdkavFGkjWcIe2NoSPC9LDF0RYUkI/GZYnFoezzKnPMXR7MydKkFUu11s9TPlVuNkRcq99eDM6+3BIwdQ+Ks1WpekCTKoLlVqgGfW9V+v1aCkLaOdRfw1pi2L9eeqsJ9DV8BrC3EnVSyogFb0QRghpiriTwkPU0hvXrBmNIWRNqoxC3HoQ1tWeY0r0aQD4lZ/lSGggKRRFV2aIOtBKcMAdoSj02byo47V73aSmOMWg1ER2NltzYa745HtcNau9kcqKXF0iFj3lKzLeFnoLC0O66ODvuNRrmBWmRrvIKqzynPBgq5Z4QBnTTkgXzXyxailgiXiEIBaMBlgerRjXO+2oy2GYC29CwEXNFGqTGMFboGUSWBJ08Jt2JXkvkyGHlk2gSlusaLSt5TqzxD1oC3lWq1rTXB9NDESs2BNCiVapoGi161DYsAIKokLUI5vwKbAG/PsLvkNIPXDjT5ntYGt7bohW1396OpwtBWGRqRGQmjkxLjx72eIT+cNpW9KYQK2WWDMUGe0Xa9kV54bGuTnjvp4AC1F+RQ5KA9KoHeeAnMgF0dM9YGE6u12zWJ8tfSDyN2XDvbwjAHrtlfBB5Lzf42V28dXmmtLUriPcdF2obcSdN2IRVOahRpW61383krkz2xNC7/HkYbCFyWzwZD/qEl8nYp0JbaTE6xn/wxkHj1iJzJmsCOnMi2/uJgaRvrhD5otbMBeODWDwpkgDbTRG/bC8kclD2j2P72Dg6ZXPuh2fQy0CXVEqjgEipf4G2h9WI6bHN4j+hFa/NhSsAaMh/27NgMygszHNpfzgwjRZ1gtLuftrCfmxG2AtKZejAW/tFQcIgXthp2M92Mg2TsUa1NIdLitOtR6Xz//TZK3jJWA2dn7d3mVk0YNUteTOMQMrAsxgALihzLaEgOAwn1SAnk3Khdza0frVfWd1/MssKu+nlzmwkQXhuRbtCXJZy2IOgKY7gR15gg/iLaNEr0bsG3EU/zuixZuNqKPnZKoNLhwXZllg+qfw4lVbnVqoK1nXkh8JcYG7UPFThLCW0Cji/y1gL+B3dlx4tgjTWQKO0qSLb17RfP+2uz/LIwuD+2OXIX1zPDnrCOKSGcsEBoWMECqrK7aSveQRtxBKhoDmORCehbygWINC38xUemTdIWsWavcNq2KyvfPW1BDq2CKqsdHi42S2dqDSQkxVhxe0uFMXUAzNZAAw/GIHVzB4ujXMXJCphjdj9f0osCiaIAETDjinogFtaZI3eJzEDsxgzqBCmIUretbZYi56xNRo5kieqBVFETFNGRu85qIO8eV7cxxiv4cq6DtB2t50beXRC5Y6gEaqzWLp2BfLxbR6DxyWdgawAUcK3y68NF7IfwW9CBW3Hk/azmdWgzkBgqCpfBWIEqSEPCwq5GPhzMkJm1PYC2Vzp6NPZVuqmoIdKvS5u0WNnGcNZYaR1VKkdHuYOnbASFwrjklY+F2hmTPnfp2rG3pgFrTajvx6Pjl7mjdZ5Nj5xeyNZnG4NAWyEW1QmO6WPJ5O/CrRA5bQSKx/1U3eTNyDtoM5jiLCsirxIA513i2C2xE0MD221c7k5Xo4/ppAKTWQNzZ7kFKm28ksPFxm7teBECfbOm4VVz2u68eIo+ISiEeZ++BgF37B1DIX+0Xdku48BMeX29kzvWhE/7qSyo4WjhDaRPxkDcJoppTaDMDKcsUL4KMwuhHh5DY6QXKio8tPLCw94oGso024D8X/WfouVbeya4DoUKrRvOEEGEKgOtzemwScxM+fPiI00bgEs+61S4sfVx2KDJa6r++EzFyrNUY/Ln6yMebCVYF2ovZTBuHEBWWF+B0mGl0eCGt6h9plIQyZtINFbE3mN6ObtzYsgoOPKFIDYsIbdeBFctriTUuFPUE+f+XWxE9eu9WpHUBGINNXeyJl/hzd7Q4AvDDRCFcGc52W8Kfhs7IY8B0GzVtQrwVl7pv9593Wz+0MQm5HirLcmjxdLgQTsB2koj4XhUhSKrdVDdgtJh3G+1DoC3yjMoFT65ob25lyoEVp8U6vV6sWuiyRgXH+rBYKF3cUmJYCT2nvQm2uVFcS8cfnvxBq+Zme8/PFndy16cOvuYJPcKhb3exGDiue+nuG292y9MDPSPyXCvvje8yDNMK6e9wmp474MtPUrjSFKOcZxurXL0F3/5l3+1hdVBu7TVH49fjzQV4tpDmnoSWGxNOi6Nd6srK7tYLIDHwuJf/83R0loHVPFH63MrVSSiz0GlcAupoJiX+OnSTEsyVKWXumkKOv/u0tRxT5qRdz5N++Pm5eWlfnn5SlM0auTtzMTOpylvlORNZyseBZ19mOY9dcsDwZQRNow6v/vbgidU/7sS0jbynkFkA8GmsQcNQeGsEVaDTcbjZnsExQIOZ734i7+P+H//u6W1LVW5tbYoKoLA5/7OBwAcaiKzcYHpcZ1lefpB5GajOKHqo3P41CDB9Cj0ntV+IdRdoK3zD29DUZ/PF/7Hs1J78E+9CVbuwNsnT+I2hBpyVRoAeG067v/z25gvGnr7L0vP1BvWhkNQZHYhmjLnwFfDfPgikBlXs6Xbh5Y+WpjuQ5j/cHvvjwSNHa11/uVt0OPzeDzRWCr7r//UWw2s2sesVjqTP7ozOOB2VzaS2OiHdu0QioV2u704bh38WyTqifo8vsK/HR3Oby/BxoZpX/ROkhnb1FX5Cy9GuBprvp2oP5O4Hw/Cd0v//vsAGBqw5tkMxWKFVMgX84QtBsrk9soUVfiySe4gTkFpXNP/8B/fLb44WP/P36d8UX4fPMG//4/rtXA787y+t5+xrExvZy94whWqYwr32cP0z+DdU0e7I9V8olHlOPtn9/7LIP7X3wZDviltvij880Q9vlgUBOexdPscJEE0TlbrNtFun4MmCIos2IWNyMnf/Oez/34b8nhifI+eaCozdzRqnO9krWmeSe8n/LrAHRFbILIsT2eDXM0MmZWdHPTqjzKOieJBYYdzEQCjoIRj0dPpOJIzRo8HADgD0rM1HzBz4rPoFnw+MIood1IPmgh/i0EZ/dGMK1CUWbDF1aTx0UiGohAzHvZseqBY+mM9Fp3uCogLzcl7qg93etgnwgpIY2pyB6sAUZsLfzNFexf4fRSnFz7b5fXO5Zt/mX6ak+pUuabt18100n6MeT4GuGl09b0qq9dtBqqJopFcjfnQgDZNplKwPYFfiAJ/FtOTRAA3jXH4rncVjUoEJyHhqvowEZ8fckvvWdhKEZj2plscDrPFCdAoEqZPbMRkKs0u3+PnSUbjPds/8A82y09gwZqbN6HC95mJSU675/v7+ycn8WTGMhj6tLO7zOmMQJEs5+VfMKHsI6Q376KNu9fqic5m4oEnqPww5cPU4YMIaKMMl2R+x0SJkTfFYIzblw9X8c3vJ6ATTJg4V+MkFTBvnO2FDXddJm9+ztqmYehQKcRNKovGK7vuD394oztr6a8yext1y+TtFGbm4zvFvMl00w6n6sa1eb3Z2fBDmmG6lfQHh6b5yh7uZW0mq5K5HPWH9/M6md4xVYrHyT29wM9CD/vups2zGU1BrSI6gZdB/kuGgZipL0eDiWHSNvFRDiymjW4Y5Ibvzl3FUnnuWFRhlj92PqsROZiuo69MfrpQsfVBRfUiXF+Go6lQVxWM2ZNJjBnDVBes0hF25HSHd0hoOuuJvJvSBskgfhIbqrCxxPRs6AM/ZDKwZxMGoXg5GLi80iq87DV/TcrNh2PRu2kDFsCoIALhtB2m2rHQnBHBUiwYXL1Iw0miGQajHs8n+I8lloljJmo8dmvsiLfHxMzOviSKgohuLyVDO69wPHkS2TRmHXUqqMVIZraRQMyfcFxUYPofM4UhhBKGe2L5EzvIm76UpKMbPQiZEk2HQ8U0gzvyLgFGT2cKQEwGA13xVzy4Y/lDn6IN02AiaeB9lKyhPzZvTD4OT2gI549m6PPcbWoISKV4/bKqJzz1mxUDmJpK8+G6DhGKW7UmGAXfMC0rZOKPprWrUKTM0QYu8j+YSSTRLOpBlEpwU0SFxt9kUsM0V01GlrdOwBd+DmzqOMvI8gf06x2ks8VAIP0rJImd+hRtHi5I6j+bVDN/3AvdZMVRLNFoIJHJZ6cR7xM7iabO+ewrKll+T/GjeCKR+EZy5j0gH0gmFX5HNbA2oG26DqNa0T9HW/p/kAKF5OOkF4lLjHc4zCLJgLXxFMFpg2zPyDAwVDWoS65pwzlfdi8fSUDU++KkYDu69JMGFwsE3iUTqFBu0uawBC/BlO8ze8CdhJLE6WxnUrH9j4pcaiYiy7NQLUG8uYwE4opD2yx7IG3z1ubQJtF8j7yKFExFxqr45JRm/PPWpuA8h71Vi6psnjZwVPVtngxTP6u/fE77DN3PGNsU9RCEtU8BAuAnvXNKcGif00ZoJhjY//hE7UQ4T68LEskYxsKQwCG2XdEm3qJNcmgT7QuiFjc+cFs1h3BfEkNnG04bvFnZYp4KOENwztqA7iwhy8F6/sufdbqPNqfoupfazwFo4zM3kLb4x+d5EQqbdG7mMzmJhU1ygzaF3EWbQDI2XH44oKP637fIPG2xQDw+TOwEbF1lVJ6njaikB7InjV6gfC3aIH7FPhPuH4JYXFX4uNe7Qix700fxrJMpoG1Ok5D9VOIWbXDdN2n7yaGgaxPF2IxMiCLpWSjQuJNOaYvrupnPZFf3koZwgzaq6gVdlMkk5de/eIrg+af977GA1sav3yzEVvUbR8eRimTKfypeJ1iZ7IfCunSLNvUGbepPl5zzpIUmF9o0GEnakEbmaOMpARaSG5G4pt2wNkgIqmaoZso/IV+qeLvfhjY8lGgMfUH7Rp9QEhmxI6nM3IMMEjkJbULMmadNEtV4cI42/YnjpCd5eNELEYvqdexI3aINJ5gr8UDkFHZ/TZui/vy2WCzG/xjwbRpfSlsm+PVpS05pg1Qa+PnGIy9UgsInESvOtxqhIEgy5RZt5CSSvF7FrOs4qVIrmqj2ehtx0p0QKFhv0QZpWQSpsPGezNMG4lzVFEWR7CCOK34ZPqvbHgM+D+g27OaDioKQU7CZSq8eymD6nkbiocIbKvIHAyWRDy6bTCWTINiCiK1zHHvGSTCEzMaa7SGWHZLwFpkQ82BudYMqCtdt3H6MbPADH6MSWD6S6tIruUshqP1o80PLRjQWV77wSXUoE39VvH8AsEpAQSpD5k+EoJZnmtMBEEVyXqTEXA3FJecnRUQBQpsfMxxF2mQRDRKsSKfLkcgrhiOlkgaBLsOfzjDqGNI1teiDrICtNbA2gw9Hc2vT+FSa00hkWbyiTVSpzidoCkxi3fqOKT5wtOQW8uHoV6bNl4DTRi/FJopVD0XNqy4isZ7YVGTvwhDvHddVRetJXEWLmgTrhiJCxFLZm2yaGvVAXKU4oRSi4RMdXVEw9hTYpUisQoHHOpqJDA1sqSFtRXwiRmHqj4WoARY7szZJ7J5zO5REqqcCSaJ+0QCgvrrJW2ieWCoVCIVCgUAg5vRlkc0po7+G2Fg0nCezW6qBKg0XMk41SNVMwX/JUIsWdrpc3oP/7fQMEf31YsO/zB2O6dkuUalViJzgRHKivnuyzJ94EU3QIRDAqBG+cDqQvWDWQKapHogF+Xigcr4zNLHfagfrJiR0kRj1U97bxVOIhxKX5ItEiJHypIKJcGBYPOklL7qZ82TvZOiJJIKhwIyvqOfXRL8oiter9qrEVLu492TftiyrW3gyzIgCalU9GS50LdBZwyFoCoXp9vvVcOGn4YeLi4vezhOIdeDgw52fit1ucg8qIxnqIivzNrw5WTYgDtqmCCTaH/YiOz3bZGamuFOv7/Qy3ZNw0U4zVbQnicTq20me4RMg2fe2AS5q2t16eLU++SLa1D/Gu7Z1qV83aYBK/TJvvy8WwkAeb4R8sdyFij8VnghXYRfCjcA08113Px6H45oGAyVKZAh9ujVJ7p9PLkHTS6KmL1uneQA+6mKdWiqTFIHigNd+MpNPQxiElU6tvJm3/mDIcMpMVLRXy/CFaVmXsC8Ltj2FTU2dUVVQJAt3Zy3nZfgSNrIMWRBfwaIJ337R0/1T9+EjHAIIHVmWiTAdxoS73xsW/KDsQrzD8eme2idJi/nj5nzlhxNGrp5uhMtVsVUu4WMu/CuRyGB9KFTZ/CgBDp+AvpieloI9Zewx8kIWzpqPtMjC7Hk2xqbDByI+7yAygc7uG++3UX4SIk7+l6AW/rJH+1HAEGk2HoH74ilNcJYpWJ6VAbsLhmIxKNofbHY8MPo8wayl3WrP8APwcTnkQsHLh2/w5KlMp6tSHFS+OZx8/SzkrUFj8cbfnR9lolfzfeSrtZ2xK2na1+PP3TB8ivIrPGAKd8XJb6YNZldIYe54GHVRQCw8tFWccHXHif0pPIb8FR7IJVxaSvjrFBLeE0LSpnUx3PGnnFGp6J1ZAr/14VArrBPcObFUis/J3kWR4Jw2/aYgnxx+/irgxwRtClVlPhPf9EdSTlP8I+58vHEOdUEiELd1cs8zzN+cNrwK+khTZx4GOKIkOAOcaXM5ubmXSEGsi0WnY3y+6UBgNJBKhfeG55aOv691z8McsE/hm4IfUPlmv4vj2Dd/gQJJ5A+15u1kcRMlCiAFMjkUDPr90eHJ+XIeR90hnwl3zaaahySzw0PvN8RhreY9VH6bsIo5dzoXQ798ZdmT9xeIjA2qadr2Ex4WbRXh+HcL3xhrB8e/GW0qf9jwjp9XpPL0RxIelNWhZBgtfmuMHvuXGX4BZjN/KFd8OJ+HUEePXc2CfMBenFk/0jcFFMC353a6uAf/93+ByoULFy5cuHDhwoULFy5cuHDhwoULFy5cuHDhwoULFy5cuHDhwoULFy5cuHDhwoULFy5cuHDhwoULFy5c/F/C/wKeSs+HWTks7gAAAABJRU5ErkJggg==;" vertex="1" parent="1">
          <mxGeometry x="400" y="27.74" width="100" height="52.26" as="geometry" />
        </mxCell>
        <mxCell id="qoSOczia6jzgLVWpltz3-11" value="" style="shape=cylinder3;whiteSpace=wrap;html=1;boundedLbl=1;backgroundOutline=1;size=15;" vertex="1" parent="1">
          <mxGeometry x="380" y="80" width="60" height="80" as="geometry" />
        </mxCell>
        <mxCell id="qoSOczia6jzgLVWpltz3-12" value="Automated Snow Pillow (ASP)" style="text;html=1;strokeColor=none;fillColor=none;align=center;verticalAlign=middle;whiteSpace=wrap;rounded=0;" vertex="1" parent="1">
          <mxGeometry x="375" y="170" width="70" height="30" as="geometry" />
        </mxCell>
        <mxCell id="qoSOczia6jzgLVWpltz3-14" value="BC Wildfire Climate Stations (FWX)" style="text;html=1;strokeColor=none;fillColor=none;align=center;verticalAlign=middle;whiteSpace=wrap;rounded=0;" vertex="1" parent="1">
          <mxGeometry x="455" y="170" width="90" height="30" as="geometry" />
        </mxCell>
        <mxCell id="qoSOczia6jzgLVWpltz3-15" value="" style="shape=image;verticalLabelPosition=bottom;labelBackgroundColor=default;verticalAlign=top;aspect=fixed;imageAspect=0;image=data:image/png,iVBORw0KGgoAAAANSUhEUgAAASwAAACoCAMAAABt9SM9AAAAe1BMVEX///8AAAAQEBB9fX3r6+u6urqnp6eNjY2AgICRkZEpKSmzs7Pb29stLS3z8/Pw8PDh4eH5+fllZWWdnZ3Q0NBfX1/Jycne3t5qamozMzOHh4e2traqqqpBQUFSUlK/v786OjpycnIiIiKfn59MTEwaGhoVFRVNTU1FRUX9/bFcAAAJ60lEQVR4nO1d63qiMBBtKmqtrJdqqba2im67ff8nXAFDbpNAIDgker7+KUJMjmEymVseHu644yawjOJ1csY6jpbYfekxov1ksyUCtpvJPsLuV+8Q7TZEi83uTliJxeRZz1SB58kCu5e9wO5PFVMF/uywe4qNaFCPqQJPt/w6RgZBBWNzq3TNUluqMqQz7H5jYNWEqgwr7J5fHfF3U64I+Y6xe39dPDWnKsMTdv+viOjYjitCjjcj6IdtqcowxB7FdTB2wRUhY+xxXAOvbrgi5BV7JN3j0xVXhHxij6VrbKs5qI8t9mi6hVOuAmfr4JYrQg7YI+oOX665IuQLe0xdwcocUxcD7FF1g2kXXBEyxR5XF3jrhitC3rBH1gHkMQ6Ho4H9HjEdDff/pGvYI3MP2ShaGA6ik42pZlxMokS6vMEcVxeQB0jW5Sd1dXomnORPEpQhdQdl6Nxn6zr+HV6OK9vLa4+mWyhag6gflQvl9uX9NN0n63Wy/xhN0nLSiSaGkdxaUPrDQpkosoFlQ7bvQ8CROk9WX2QrfaC80yQkF+xfZXSKx9QmCiRSmvvrsLPIWCuDI/s27S3V9tbVT3kCYP/cbgFT2zs46WgPAEws52QFM7UgY0Mrf8MMaDAQ84Mqjs84tWkR3GaG4Rx7h4aWtmkR9KW9u+ovKqCRkZ82LcL+bFf9xcQeHFkrwwrcYittpCfQxGC1ETGwKT8E4wPMVauVHlBKw3gP1X1chkm7RiHNLQRLDbgWHtu2Cvo+/F8Pwajt9nMAavXZQXdRAYqXQ/t2wSBL3/NXQJHlYJEHfwTfhRY4A1w0/AK063toLqRltdrqUEBbHt81LUi+O4lwhCwPvkt46C10Yx+AHI5OGkbDHCLLTdOQ0Jq7aRoJcXcvCxTH63c2AaQ5OPLEnICm/dYdoDXLUZTxDmja7+B4aEQdkuV3/qbiaCfOXAtQ0yM3TSMBUuB/u2vabxUeksKOVkPI9tPKZ4QO6F1xpGelwb2GYNCtm6bVYBPfg3FBD5+b+CCoZb9Vh67MWUEatEBHu5NMQdBn4XeUN2RIcZP6BloVPS9jAA3Jia38F2rYQbuYAHPmPtq3C07ZQ/t2UZFCg3Kw4QEVOCf2akSAg3JgKwUTWfzWSXWO9tZx63BojvehkuCoWk8tuDqZkw5jAs7MaSm14Jfb/2z8CTy1Wu3iwCjV1qE5PQAstNptEDVpin67K3JoyGrhtoLsDRkcdhoL2jTypkJex1UIqWG697ChjWCuLdPpveKQQUtWk5ph+hT+R/c9R4CpuJ/lLjE2lBzx21lBwe15j5PdSJRhPxauvkQnrXJ4bp6hYDFahb4gvUqbfR2TzRqM5GXwfRNNwZJ+X4oLS1mt/xzvDXpXlKX+ViGYxF+WLf91mUTg4EFz8/CxkqcM4ZRp4/PJLw4YwCioKYZVr6RwMBNLHHAh0YEoN52SWoerUCRWBsEIXCiPShCMdrx1qiMFshQWEHStQm7J5Xf02+BqrsLQsUrwhoIX9ZJRAa+UWr5HKcsQvK3Fi7gUhLxB6lS+h377VgHwRkC67vExtAZrIBTFy8N/o58CfltH7Q2zVaGebqYmJV5jGKU4dN/3q4NfEXkT/KzSCqhJXKUIaiWk4A1bdjqkkasgzFgqOJ+MXelaE1e+O1a14OoxWCVwGbgK+MwBTmOy8RzqufI9ac4IvlpffbOflqtwbA0ghFyudLgoVIZoPTKtiTfKlSYGiZjXR80jIZkaNND48+3JuolDLODDUazJchA+6AMWkKXYQBaowQe3edYCSNk1DB4gK3jRzuOjHVl+5xVaYynXRzaQJUcmf/mdN94EyY/AgCG4SiIrhAps9tg1ISswc7sFuNxNg6VldqeqwJTWgq+x3XkM1hxTG3EeVmOsqpYbwjZ+58c5QzKtiJ19m96mVL/jjjvuuMM7xB+r96czxqtpEkZx9o4wP8k5y/9WAQXjucQCKilHyMEy82j0/VzgUXhwebn6fKxnxVoe7e6/LrRB16yz09ft31VVBDeLkBcqf3BxIbW6Y3v/NbHUn/Q1km6pCEuoJKtexont/VcEWDPgAvo2lXSa5X74ZIkmPBGXW5jdyixEgifLdDg7DWfgMgToY/PoAj64KnSyYB/gBdRSx3m+qDqh0vcQPlkKQY/bw5YW8qXynFsBIvk5fjyBkyVG/n/u6MRZvn2kbNJwSXP00i2SxUv3H1kxKJc+lrpT2oVvkCw+StRUUJNOQBbAdoNkcWGP38Ybk1zGc/HqN0gWt8xVbQPjvfCW3h5Z3CbMdst6e2RxdZnMu745RXmlfPBnmX+Q77E1ZM0tBy+QtZymeYrQ9wa5hikXw2e8j4XMFFIrHqkmnex6vZnF8qvL5ZYl6CXC/cdI+CLUYsKsJ+YIa5YsMD7/1HBueDa1GFmCl5Bt1XOyWMWQUk6yXy0LB9Sn+mAeoMxS4Mx+dYEs9fxtgKz0tFoVf6vTiVGRk8X2A9ZkYVbYYp0we9btydKgNVmIQbusD6W5fTIW8J4L/h6RhXbMLWf2o4YWJac+L9PUJ7Kw6kYBtm6FrDwPqU9kYZnlF2oPekfW7yiOojWvQCAFLjUj6yE+gz36uIjzC9l9DsjKNE9G1pbKUq5SAlJCdUOycojjv8A5WUz9Yy5gpGPfuemuFfC4ZL2UTQ/FNq4PbjWk090VWa950MQFA/HmRmRxfe2SEgNYB+g+WnEiNiRL2O5IG+lGZHF9RTq4lXWgTA+JkzPWrPMNyTJtpJuRxapKIKmlbP8vqXpMQvSGLFYuEImstOyAZFRmNpnekMVsHUhkcXUaxFisHpLFZhZSlhTn3BFj/ntIFpNZWCdzM7LELvSQLObhdEmADbioEMFj0UOyWE9dEmADPiyE33NZkPXDPdYhWewanrGUI4uvsmChOthH0TCySgNCNVns58MrBiHWaBjHl/ofrOJaNVmcd7YeWUxUl6sK+z4dWcxdgOjiIRXQkcWKI34zraMeWZygLHZZMWeuEskim8s+LJWfQUFV7UIdWXzA4J9N+rrN7Bb1yOICLMhhMBBDDyWyzvhKxVuuyY4MU5ikgSylRnyWfF+PLOPvo5IlAbd+jT6w20SWYlzOXsZ6ZJnCo6vJwj1BxRAGbyBLOXGvPlnGyVxFFpKdlMHUeS1Z8tSyIMtERhVZ+OUz9CHLRbwyRJb8kAVZ0PcdflWy3tUDL3pReXIEpQ58U5WGkcXvt8UjZjIBn5b/CeWeVP+kfCzucUjXSJ6svXKkWF+OfIon4lELvyvWsxm1qA9ES86O/fSvmTqbDOh9os2pNMaz+JMTJykH2XyJ03RwRv5g8XWDrMkPJiOe+1UVYpFMT6vJ5LRL6qYaLuP9dNcslXOWfdlqtK989m0/Op27hC+t7rhDh/9+G3dkj6wn6AAAAABJRU5ErkJggg==;" vertex="1" parent="1">
          <mxGeometry x="269.94" y="330" width="61.17" height="34.26" as="geometry" />
        </mxCell>
        <mxCell id="qoSOczia6jzgLVWpltz3-16" value="" style="shape=image;verticalLabelPosition=bottom;labelBackgroundColor=default;verticalAlign=top;aspect=fixed;imageAspect=0;image=data:image/png,iVBORw0KGgoAAAANSUhEUgAAAToAAACgCAMAAACrFlD/AAAAsVBMVEX///8eiP8Agf95uP8AgP8Ag/+qzv8Xhv9ETlmXwv91tv9IUVz6/f/o6eqUmZ5JUlxwtP9OV2G7v8Itj//09PW00//g7v/t9f+ytbl6gIdjanPZ291aYmvm8f9urP/FyMrB2//X6P89SFOrr7Nipv/0+f9udHxUn//L4f/DxciYnaKFipA4lP+92f+hzP/f4OKLvP9Fmf9Xof92sP+TwP+Xx//t7e4zP0zQ0tR+hIuLkJbbUj2+AAANH0lEQVR4nO1dCXeiyhIGBEFBEcEtYiLua1yijuP//2GvqrpRNpOZe899mtDfORMEGmg/q2vrakaSBAQEBAQEBAQEBAQEBH42rEd34DvCCo6j3cpd7UalmSDwL9A7uIqm67oM/zRF3vYe3aHvAmurajJBZ381dSsk708QrDTiS9E0XYO/yJ/mBo/u1jdAQwGudGV3DMawNw6OU3ag8eiOPT2KQJSujqJCFryqwJ36/rA+fQ+sVbQNSQnruyB46vohPfouCNCqZui1HnCna0LffQJkyG1lnBjjmdX/vT/fByUNRmuTPjYbjRiFPfBUtNJDevUd0AJ6lCJ93CqKoh+j3lxDBVqzBFIAcAShm7JPKrl2btQy7IXY3QfoM5WZgh3aWWBP3TevZwNFlt1Hde3JAdxwS2C5YC1GCkleYRyeBz6V2cN699R418IRCdSBgK1dDMI0OfTyYDxrx8d175nxCsqMSRWjTrIOGoazyo6N4hlI5eiRHXxewIDUmAnl1IFLMqIAlgUSY1CAuwf274kBCk5m7siVOhA1zKPoLh2H88IrzoIFzHC+ItSBCkRLS4bWDTkUiOMedQ1B3ZdYZQ5YVxED9ktkmIlm1Ey0hJm4hw/w2/r0KXROtpRdV6YspEDn5PWB/XtiFIG6A31i1DVcjaYlQpe4BOdFqjgTsUBMdqcsELtNhmEgJrKd2VhB+M/CiZ3OZhKVkQj//wgwYrkdKKo6JZ36kbNTXYSwdzHGVCfTZiVdUeRYdq6owlmR6ryHo3KdvOmt1zGecMJHEUJ3HytUcFkVJph7F07dZwjAkdPltBkNcEJMb2ZcIRCij1PYWjFxtIiMKv1HdOgboYE5JmUfTaTP9lhMIYpOvsRMp+qcVWnWGlvj1qy0ojBW7z+6Y98AzR1xReVh4KKwIrGdCCP+CCXG1600UTk8ukvfBq3jirGnY3HiqiQ84b9Bs7HH0p3RR0O4JH8NjGg/sk7MDqPdavp6/Ez9zUrQBsvf/6POPTduyYD4YVfF4nYYyuruXrFicXVts8qjT1NEDy+p5YKdcjMgujrK0oLMRF/bTPO3dACpS8YVfY38Fk2TWWm7Jqc1ITmGMm9DDObOsUHqErnNGYUVq2PQslqzLebf9VSyADOisuaWsE1Qoja5C36JulhFXY/E6SqI1hYDXnccuwqrP/VbStQ6KPdqbH8wimzlSWS0TXG0Rm1mAwatVo5dtQfjwufVGNbYJmcTaURddERiSawW9zYaMDpjUz19VZYTbfrQRs2Xk0IWFmf+Q001TVTEIqevYAyizt8I2myjbSxJKmh5Ky5Dv26v31agNJVrYQVivFdXY6mJZvh2sAfXyDflZ41Ut0cZZi1X2g5ntI9rWvc07VuUyYsImLXTZKVExdmRKtm1EmsDig8zB1jzmKulPkWqj2WenOJ+FGEsUqK4iboNmaOlT1gScOg1GXofvE2P2Nxjm0a0rCAnYNRhbCCTiwsUKk00FuqHZE2BFQWV2hpHrBICl5IFuNJMBeU2wjYFiYpVEnb4h6MYVmW/y4rOMnfamC2f+CB5QlakGV91fIXaY8bj9RWZo9HbVOO25MfjSh1I2ohLXQ/X8ci0poKxAgMad0PwKkZcsYI7nLAgt1KHGAfrKa/WGZGcceZYfuU1xEpmRuOV2mjcJUHjsU0/4OciRp0UWVaBo/UaH7zGLOz1GuQ3ZE4qw9Fc5Z6S1AUqryGz9mQFCFimot58tua1zmykqnt+EEvOlFxlAJLUWSsQMOae9a9e2gH95kgjLKotJtrcyZn+YCSpQxdOTuRAArS0/ehFGHLEJawJBkPN1XhNU2dh4ckuWv3fwiP72FW0Wjuahxqv8lfok6JOmmFaZHWTqRnl5uIyNkPfZXVLpszy+NaANHXSFv017YOvtkMrqqeG4jHW5hXdwZwN10zqJMwLy5rqTvc7WY3njK8oKdc2LmuTu7L3LOooL8zDBxQuOSuF2aCloGF0oeWw0CeTOqm3h5AsrKl4HWdcB9ZjFGmTOd/4w5FNHTgbh6muqIq8P96fYA3bTEu5coVD3KMOYI1b46+WKFrj3pdtfio+oU7gcwjq/jEEdf8Yn1L3J1osr5qOZh0yJ2NaxdeVrLm7j8Z9bqzg/VAoFw7FIJf8zbSstPi4oPN3x2qJRWQ3WOtyrVwuFArlcq3Q/297+ZTAtOU+ebAvh+EEFaSssuL6ZqFWQJTpby2Hr+Yd48xMIlzgbxjT3JWrsVK79NT0rAacgdgVDvQX/uQsbyJRjUlicVMRmVNHayS01dhhjVjqBVkBilyNv192dqS93HFXvL7OjoMqEyNv8lzTEvf4eGyhnBVubQJUeuW8xbEtLSF2mO91o0xh7asWL2I6lIG5KFM92C/nbiEtVndFijbflVT9K879x2rncLiW422acKiWtyxAC4XqNmRvs103bBO1c8dyoZa0HI08il0DJyNG3KsN1Iw3TtCbUW+COUaHJOkFW+ioZGf2fjA+cBJ/xwYgBmbp8odRbPZ/ViuU0yn393IOjSwVQOgyvSYGaGQkzYgGa0b6q8jfQmm1EI1MkpDQXJUmMtCr6zX5Y93E+k2Uv2Ot1sBRWKshkX0mi71yDQHjtZYOHsBQlPM2KYY4qnxhMa+vk0DpH4ArPjRnrEz2nUVd6P+mfThsm7tZMUTAl3zxskPpvVbrw+ZQo6HJpW4N8T5CSF0c/RFfx850XUBKzgqIo3f+erH1O+IgdF0SrcbHfiV/bWEDYWGz0FQzXtXZwtLYL/y6Mfp1uUx5XoHRRFLbl7X4mxQhmkiNzVxGE3EUlVTN0jq5/oti2HjAGuQxhk0CMydyKnMSX3VYwsxJtE0Ph2vOhS58WdZtPL6T1xL341o0JRELzYDL3EWwKRQpLzyl/zqmV6T/qi21XJNliQ8zliU+0F7ehyuiyCYkFN1la//1jCoxlhfGoIz+gAzm2jG5YubyGTGKLpRdljz1trXCDbVt3rLr92BtZXpPFsqem/Z+GfoFjMtA3sq1Qr7WX3+OcaM8deXVdLv+xM1tNo7bwvYo3mqURr6DAwEBAQEBAQEBAQEBAQEBAQEBAQEBAQEBAYFnRmXerm+ue+2Xc7qJt6nQ9sS3EUxePrv1ZvPJ2RuGL3/W7rngXUwD0PH4/vDXPDy1qYYf64MLbdt8G8GL/cnNfdvxMk90q7EfqPqr+xddfhZMzM7b5rwYhD/7eXH9FufBgn+qm5w6u5q8/sW5f++u7dsZMgyYD9qx3UVKmp8fC3tJ225G37vGv6RuYWZcQJgb7czj3wgnxzlFditdABtilXO37Vy65zOKTZy6LpOkzRlbAnWb4fAt8+4vvuX7t5vXoZ3Hbj20F3DrbvKhePP2sM1HAJw/tYd173ZmOI/29rGY253o7uLXwDSYghvCR98ZADykjglPnah7MejbTAyU1Be/PgBd+ZKh0yog0VUjHP9Vc2AbA/yl8Cm+DXc26cQSdgdhq4th2AZ7muX4Z7iz7XvhGdMcDJ7GnizsRXQXLOjCZBLkVSpzs3qqVJCfur0EY7mpDIm6CdP9HYdR59S90yL+EzC0jbr0Fg76pdnpet55UsFbn9r2kN8azXDlEhK8MDsbbzMxhrjj+/6bV+mwLtaN3xXP61afhrqLndQ5Q+M6+CK6znHQDBuOk6bOoUYTI20jO2YFNAJzXs7GhB1kZT0JXbfgV3sm3RrUCG58BwdAxaErLxkPeCh+23UJrepiEX6VCHXnCHWTIWKZQZ1NctA2h8l7n+g7d9j5iz2PnrtD3ZvNdOpvE9Wpz57j+0h3lXr6RFiS1A0HthMOuGzqYrouIXW0czZTHl/dxMuHJpE0sWMm/A514Q+wMJEnnwnsC1F3Np1l/WlGq4S6Dvvqnc72b37kDnVRC5ugjs50uZMTwdIZgn1usx/lJWbJ71HHeebbGHXS2wR8d/95fJo6/8abf0HdHanzQD+CFTUc26Nr/kTqbtSlpA5wOlcd42mG7cZh/fo76mzmnER1XT2l685m54xYkpZbxsOKO9TNuQe9ZLouQZ2EyvC39Cz4TSMWqMvQdRszHIRx6pYmftGKw6WObtAxkhFX1WQCwr7tmxHzXm6/CiGk7mSQB+0xSc2grmJkOEEPQsWxh57kDRl1ngdjZW55zAmFITc/0ec4dW2740mViR/6dWfU75PknX1uGDyHfNqJfQFtd7rwFIzpnz32GHxa1Tyzh17MC/RmyYQvRl0VowrvYqQM+ePQ9Q3bMQ0fheZtYJq2Y5sGd+7rtmEMMHSIZ04837b9wbBD0YTvDAe+b/jJGLg7CLNRkwHKsdcxTGg34NZiCDp/4LB74kNN0/h1olbOi2N0kCyIJqgp81E6EIG82MbzjFfEvLqsskCxUg/Bv6D3Bp9hu6nzsJVtveGyepbe6KJ5XTpflsNUHBZeAiTW2Q9xXiwvwyvDJ7j1nDUM4YW94SqDnccn4DPPi8tykZ2HERAQEBAQEBAQEBAQEBD4yfgfLhENtFM5ToYAAAAASUVORK5CYII=;" vertex="1" parent="1">
          <mxGeometry x="269.61" y="368.65999999999997" width="61.5" height="31.34" as="geometry" />
        </mxCell>
        <mxCell id="qoSOczia6jzgLVWpltz3-17" value="" style="shape=image;verticalLabelPosition=bottom;labelBackgroundColor=default;verticalAlign=top;aspect=fixed;imageAspect=0;image=data:image/jpeg,/9j/4AAQSkZJRgABAQAAAQABAAD/2wCEAAkGBxEQEA4QDw8TEA8OERAPDxAOEBARDg4OFhgZGhYSFhQZHioiGRsoHhYUIzMkJys6MDEwGyE2OzYwOyowMDABCwsLDw4PGxERGToeHyctLS0tMi0vLzEvLy0tLS8tLy8wLy8vLS0vLy0vLy8vLy8vLy0xLS8vLS8tLy8vLy8vL//AABEIAOsA1gMBIgACEQEDEQH/xAAcAAEAAgMBAQEAAAAAAAAAAAAAAQIEBQcGAwj/xABIEAACAQMAAwkKCwcEAwAAAAAAAQIDBBEFITEGEjJBUVJhcZEHExQicoGTobHSFRYXJEJTVHSywdEjMzSCkqKzNWJz4WPw8f/EABoBAQACAwEAAAAAAAAAAAAAAAABAgMEBQb/xAA1EQACAQICBggFBAMBAAAAAAAAAQIDEQQhBRIxUWGRFDJBcYGhsfATFSLB4TOi0fFCUnIj/9oADAMBAAIRAxEAPwDuIAAAAAAAAB8rivCnGU6klCEdcpTaUUutlpzUU5SeFFNtvYktrOTbpNOTu6reWqUG+9U+JLntc5+rYZaNJ1HuRirVVTXE9ZpHd5Sg97QpyrPnSfe4ebKy+xHn7vdteT4EoU1xd7ppvHXPJ5ts+lS2qRjv5UpxhzpQkodrWDfjQpx7L95oSr1Jdtu4y6+n7ufCuq38s5QXZHBh1LyrLhVakvKqTftZ8GyrZl1Uti8jE5Se1+bLSk3teeshVGtkmuptFWyrYBkw0jXjwa9WPk1akfYzMobp72nwbqr/ADtVPxpmnbIZDjF7V5IspS3+Z6+w7oVzBpVYU60ePV3qo/OtX9p7XQO6e3vPFpyca2MujUwqmONx4pLq8+DjLEZuLUotxlFpxlFtSjJbGmtjMM8PCWxWZlhiJx25n6DB4/cNuo8Ki6NdrwimsqWpd+gvpY4pLVledcePYHPlFxdmdCMlJXQABUsAAAAAAAAAAAAAAAAAAaLdnXdOxrtbZKNPzTklL1NnKGdO7oT+ZP8A5KftOYM6OE6nic7F9fwPfbgdCQ72rqcVKcpSVLfLKpxi8OSXObT18i6We1ks6nrT1NPY0eX7n2kI1LVUc+PQlNSjxuEpOUZdWtrzHqjTrtuo7+0blCypq3tnL93ehIW9SnVpRUadbfZgtUYVFjOFxJp7OLDPKtnt+6bpGMpUbeLTlTzVqY+i2sRj14y+zlPDNm/QbdNXNCukqjsGyrYbKNmUxBsqyWVYAZDYbKtgGRo2/lb1qVaHCpTU8c5fSj1NZXnO90qqnGMovMZpSi+VNZTPzyzu25mWbKyb2+DUP8cTSxaVk/A3cI9qNoADTNwAAAAAAAAAAAAAAAAAA8z3Qv4J/wDLT9rOXNnU93lCdSzcacJ1Jd8g97TjKcsa9eFrOcvQ119lr+gq+6dDCtKn4s5+Ki3UyXYjGtbmpSmp05yhOOyUHh9XSug29XdlfSjve/Y4nKNOmpvz41eYwHoa6+y1/QVfdKvQt19kr+gq+6ZpKDzdmYY/EWSuuZgzm225NuUm23Jtybe1tvayjZnvQt39kr+hq+6Q9C3f2S49BV90trLeRqS3GubIZnz0NdJNu1rpJNtujUSSW1t73UjXNkpp7GQ01tDZDZLZVsEBso2GyrYJDZ3bcv8AwNj92ofgicHbO8bl/wCBsfu1D8ETUxfVXebeF2s2oANE3QAAAAAAAAAAaXdDp+nZwTl49Safe6aeG/8Ac3xRJjFydkRKSirs285qKbk0ktbbeEl0s01zursqbw66k/8AxRlUX9UU16zm+ltL1rmW+q1G1nMacdVKHVH83r6TXs3YYRbZPkaU8W/8VzOnvdxZ86p6KRHx5s+dU9Gzl7ZVsv0SnxKdKqcDqPx7sudU9FIfHuy51T0UjljZDY6LT4jpVTgdT+PllzqnopD4+WXOqeikcpbKtjotPiOlVOB1f4/WXOqeikR8f7HnVPRSOUNlWOi0+JPSqnA6jpDdzZTo1YRlU306c4RzSljfOLSOWhsq2ZKdKNPYYqlWU9obKNktlWzIUIbKtktlWwSQ2d53LvFhZdFrQ/xxOCneNzP+n2f3Wj/jRp4zqpm1hOszP8Nhy+oeGw5fUa4HlFpKvw5fk6/wYmy8MhyvsZ9YTT2NPqNQIzaeU8PoLw0nUT+uKa4ZerZDoLsZugY1pX3617VtMk7FOpGpFSi7pmu007MAAuQYmkbuNClUqz4NOLk+V8kV0t4XnOQaRvp16k6tV5nN56IriiuhHtO6TeNU6NBPhydSfkx1RT87b/lPAs6GFhaOt2v0Ofip3lq9i9QyrZLKtm0apDZVslshsAhsq2S2VbIJDZRhlWAGQw2Q2AGyjYbKtgkNlWw2VbBIbKsMEAHeNzP+n2f3Wj/jRwc7zucWLCzT1NWtDPR+zRqYzqc/Q28J1mUIyCMng+w7gIyMkEEl6NTeSUlxbenlNynxrjNDk21hUzBdGr9PVg6miq31SpvtzX3+3IwV45KRlAA7hqnLd3lzv72ceKlCFJdm+f4/UecbM7Ttbf3VzPlrVceSpNL1JGvbOvTVoJcEcio7zb4hsq2GyGy5QNlWw2VbIJDZRslsqwAyrYYbAIbKtktlGwCGyGw2VbBYNlWw2QQAAEu16kltb5ADJ0bYyuK1KjDhVZxprH0U9supLL8x3yulClvY6koqEV0JYx2Hke57uTlbLwm4jivUjvadN7aNN7W+Sb9S1cbR6W+rb6WFsj6+k4mlcWoU3Z70u97eR08HRazftGNkjIyQeROqMkZGSpUkkz9FT1zj0Jr8/wAjXGVo6WKiXKmvzNjBT1cRDvtzy+5WqrwZuQAerOecLrT30pS50nLteT5tlqsd7KUea2uxlGztHFDZVsNlWyCQ2UbJbKMANkMlJtpJNttJJJttvYkuNnR9y24aEFGreRU6j1xovDp0/L58ujZ17SlSpGCuzJTpubsjwujtC3NzroUJzjz8KMP65YXrN7T7nl7JZc6MeiVSef7Ys6fO4hDxeTVhbF0Hxd8+KK87OTV0tTg7XS7k2b8MCrZ5+Rzh9ze8+tt/SVvcK/Jte/W2/pK3uHSfDpc32jw6XN9pi+dU9/7WZOgrd5nNvk1vfrbf0lb3Cr7md59bbekre4dL8OlzfaPDpc32kfOae/8Aax0FbvM5n8md79bb+kre4Pkzvfrbb0lb3Dpfh8uavWPD5c32j51T3/tY6Ct3mc6tu5hcN/tbilBctJTqPsaiew0BuNtbJqok6tWOvvtbDcPJWyPXt6TZyvpcSx2mNVrSlwm37Ow16+motWjd+S/nyMlPBKLvb7mTd3mfFhs45GGRkZOBXrzrS1p/0b0YqKsiMkAgwFxkgEZK3JB9rN/tKfWvWfDJ9LP95Dyl7S9F/wDpD/peolsZ6EAHszlnE9O0t5dXMObWq48nfNr1YMBs9Fu/tu931R8VWFOquzev1wZ5xs68HeKfA5FRWk1xZDZVslsoyxUMqwyVFtpRWZSaUVyyexAHve5roFSze1Y5w3C3T2ZWqVX2xXVLoPcXdx9GPnYs7aNvQp0o8GjTjBdLSxl9b1mEeX0ri5X1Yvb6fn+TuYWiox97QADgm4ACMgEkZIIyVuSSRkjJGStybElcjJBFyQRkEFCwIBGSpIyRkZIyVuSMmRo9Zqw6M+pMxcmx0LDMpy5Pa/8A4bGChr4inHinyz+xSq7QbNwAD2JzDwXdRs/Ft66XBcqMv5vGj+GXac+bO3ac0crm3q0Hq75HxZP6M1rjLzNI4lcUpU5ThOLjOEnCcXtjJPDR0MLO8NXcc/FQtPW3+p82yGGVZtGsGzM0Is3NonsdxQT6t/EwmzM0G/nVp94ofjiVlsfcWh1kdwvuA+tGuNjf8DsNceJ0l+t4L1Z6Gj1QAQaBlGSMjJXJUmxOSMkEZK3LEkZIIyVuSCAQVbJRJGSMkZKkjJGRkjJS5YZIySQVbJIN7oylvaaztl4z8+z1YNPaUN/OMeJ630I9KdzQ1C8pVn/yvV8sl4s1MVPJRAAPQGkDxe7fco7j5xbpd/xicNSVaK2NPnpauldR7QFoTcHdFZwU1Zn5+qwlCUozi4zi8SjNOMovkaetMo2dx0poS3ul84oxqNLClrjUS5FOOGl5zQ1e51ZyeVKvBckakWv7otm7HFRazVjSlhZrY7nKmzL0C/nVn94t/wAcTo/yb2f1tx/XS9wva9z21p1KdSNSu5UqkKsVKdNxcoSUkn4mzUS8TTaa+wjhpp3y5nqL7gdhrcmy0hwGazJ5DSX6/gvudqj1QRkZIOcZhkgjJBVskkgmCy4rlNn8HQ6e0z0MJUrpuFst7KTqRhtNUQbX4Ohyy7V+hHwbDll2r9DP8qxHDn+CPjw9o1WSMm2+DYcsu1foPguHLLt/6K/KsRw5/gnpFP2jUZK5Nx8Fw5Zdv/Q+Cqf+7tX6EfKMTw5/gnpFP2jTZIN18E0+WXav0HwTT5Zdq/Qj5RieHP8ABPSaftGlJhFtpJZb2JbWblaKp9L62ZVG3hDgxS/MvT0NVb+uSS4Zv0t72FZYqNskfDR1p3uOvhPb1GaAehpUo0oKEFZI0pScndgAGQqAAAAAAAAAYukeA+tGrybTSP7t9aNVk89pT9fwX3Nyh1RkjIyVOaZiSMkArcsE8bNqPr4VU577T45K5JjUnHqya7m0HFPaffwupz2R4XU577T4ZCTbwllvYlrbHx6v+75y/kakdx9vDKnPZHhlT6x9pMrGqlneauhpvs2mMyZ1MRDruS73JeojGD2WZ9/DKn1j7Te2zbhBvW3FNvleDzZ6S14EPJj7EdTQ9Sc5z1pN5La2+3iYMVFKKsu0+wAO+aQAAAAAAAAAAAAAAAAABiaS/dvrRqTd3NPfQlHlRo2ef0tFqrGXY16PP1RuYd3i0MkAjJybmwCMjJGSrZYZIyRkjJVsknJt9EUkoKf0p519Txj1GmNtoi4W9VN7U210p6/1OhopwWJWtudu/Lztcw4lPUyNoafTNBJxmtWdUul8T9puDSaXuVJqEXqjltrZnkOzpZwWGkpeHf8A1e/C5q4dP4isYB6S14EPJj7DztKm5yjFbZf+5PTRjhJLYlhGhoSDvOfZkvHb5IzYt5JFgAegNIAAAAAAAAAAAAAAAAAAGuvrPOZxWv6S5TYgw16EK8NSezzT3r3weRaMnF3R5tlcm9uLSE9q18qNfV0ZNcFqXqPO19G16b+la64beW3lc3YV4S25GDkjJerRlHhRx0vPtPmc2X0u0lZ8TYWewnJAIKXJAB9adtUlwYZ6cYXayYRdR2itZ8FfyQbSzeRV15tYcm1yN6ikIttJLLexLabGjop/TkkuRfqbKhbRgvFWOXjbOrR0XiKzTqvVXHN8s7eOzia0sRCOUczH0fZbxZlrm+xGeAeio0YUYKEFZL3zNKUnJ3YABlKgAAAAAAAAAAAAAAAAAAAAAAAA+U6EZbYp+bJ9QGr5MGP4HT5iCs6fMXZkyAYvgUv9FyRbXlv82fOFNR2JLqSPoAZVkrFQAAAAAAAAAAAAAAAAAAAAAAAAAAACGUYBfJXfnzZVgH174O+HyZUA+3fB3w+JABkd8J35jkoA++/LZPgiyAPsD5ougCQAAAAAAAAAAAf/2Q==;" vertex="1" parent="1">
          <mxGeometry x="53" y="340" width="34" height="37.34" as="geometry" />
        </mxCell>
        <mxCell id="qoSOczia6jzgLVWpltz3-18" value="" style="endArrow=classic;html=1;rounded=0;" edge="1" parent="1">
          <mxGeometry width="50" height="50" relative="1" as="geometry">
            <mxPoint x="70" y="210" as="sourcePoint" />
            <mxPoint x="70" y="330" as="targetPoint" />
          </mxGeometry>
        </mxCell>
        <mxCell id="qoSOczia6jzgLVWpltz3-19" value="main_mpoml.py" style="text;html=1;strokeColor=none;fillColor=none;align=center;verticalAlign=middle;whiteSpace=wrap;rounded=0;" vertex="1" parent="1">
          <mxGeometry x="45" y="377.34" width="50" height="27.34" as="geometry" />
        </mxCell>
        <mxCell id="qoSOczia6jzgLVWpltz3-20" value="" style="shape=image;verticalLabelPosition=bottom;labelBackgroundColor=default;verticalAlign=top;aspect=fixed;imageAspect=0;image=data:image/jpeg,/9j/4AAQSkZJRgABAQAAAQABAAD/2wCEAAkGBxEQEA4QDw8TEA8OERAPDxAOEBARDg4OFhgZGhYSFhQZHioiGRsoHhYUIzMkJys6MDEwGyE2OzYwOyowMDABCwsLDw4PGxERGToeHyctLS0tMi0vLzEvLy0tLS8tLy8wLy8vLS0vLy0vLy8vLy8vLy0xLS8vLS8tLy8vLy8vL//AABEIAOsA1gMBIgACEQEDEQH/xAAcAAEAAgMBAQEAAAAAAAAAAAAAAQIEBQcGAwj/xABIEAACAQMAAwkKCwcEAwAAAAAAAQIDBBEFITEGEjJBUVJhcZEHExQicoGTobHSFRYXJEJTVHSywdEjMzSCkqKzNWJz4WPw8f/EABoBAQACAwEAAAAAAAAAAAAAAAABAgMEBQb/xAA1EQACAQICBggFBAMBAAAAAAAAAQIDEQQhBRIxUWGRFDJBcYGhsfATFSLB4TOi0fFCUnIj/9oADAMBAAIRAxEAPwDuIAAAAAAAAB8rivCnGU6klCEdcpTaUUutlpzUU5SeFFNtvYktrOTbpNOTu6reWqUG+9U+JLntc5+rYZaNJ1HuRirVVTXE9ZpHd5Sg97QpyrPnSfe4ebKy+xHn7vdteT4EoU1xd7ppvHXPJ5ts+lS2qRjv5UpxhzpQkodrWDfjQpx7L95oSr1Jdtu4y6+n7ufCuq38s5QXZHBh1LyrLhVakvKqTftZ8GyrZl1Uti8jE5Se1+bLSk3teeshVGtkmuptFWyrYBkw0jXjwa9WPk1akfYzMobp72nwbqr/ADtVPxpmnbIZDjF7V5IspS3+Z6+w7oVzBpVYU60ePV3qo/OtX9p7XQO6e3vPFpyca2MujUwqmONx4pLq8+DjLEZuLUotxlFpxlFtSjJbGmtjMM8PCWxWZlhiJx25n6DB4/cNuo8Ki6NdrwimsqWpd+gvpY4pLVledcePYHPlFxdmdCMlJXQABUsAAAAAAAAAAAAAAAAAAaLdnXdOxrtbZKNPzTklL1NnKGdO7oT+ZP8A5KftOYM6OE6nic7F9fwPfbgdCQ72rqcVKcpSVLfLKpxi8OSXObT18i6We1ks6nrT1NPY0eX7n2kI1LVUc+PQlNSjxuEpOUZdWtrzHqjTrtuo7+0blCypq3tnL93ehIW9SnVpRUadbfZgtUYVFjOFxJp7OLDPKtnt+6bpGMpUbeLTlTzVqY+i2sRj14y+zlPDNm/QbdNXNCukqjsGyrYbKNmUxBsqyWVYAZDYbKtgGRo2/lb1qVaHCpTU8c5fSj1NZXnO90qqnGMovMZpSi+VNZTPzyzu25mWbKyb2+DUP8cTSxaVk/A3cI9qNoADTNwAAAAAAAAAAAAAAAAAA8z3Qv4J/wDLT9rOXNnU93lCdSzcacJ1Jd8g97TjKcsa9eFrOcvQ119lr+gq+6dDCtKn4s5+Ki3UyXYjGtbmpSmp05yhOOyUHh9XSug29XdlfSjve/Y4nKNOmpvz41eYwHoa6+y1/QVfdKvQt19kr+gq+6ZpKDzdmYY/EWSuuZgzm225NuUm23Jtybe1tvayjZnvQt39kr+hq+6Q9C3f2S49BV90trLeRqS3GubIZnz0NdJNu1rpJNtujUSSW1t73UjXNkpp7GQ01tDZDZLZVsEBso2GyrYJDZ3bcv8AwNj92ofgicHbO8bl/wCBsfu1D8ETUxfVXebeF2s2oANE3QAAAAAAAAAAaXdDp+nZwTl49Safe6aeG/8Ac3xRJjFydkRKSirs285qKbk0ktbbeEl0s01zursqbw66k/8AxRlUX9UU16zm+ltL1rmW+q1G1nMacdVKHVH83r6TXs3YYRbZPkaU8W/8VzOnvdxZ86p6KRHx5s+dU9Gzl7ZVsv0SnxKdKqcDqPx7sudU9FIfHuy51T0UjljZDY6LT4jpVTgdT+PllzqnopD4+WXOqeikcpbKtjotPiOlVOB1f4/WXOqeikR8f7HnVPRSOUNlWOi0+JPSqnA6jpDdzZTo1YRlU306c4RzSljfOLSOWhsq2ZKdKNPYYqlWU9obKNktlWzIUIbKtktlWwSQ2d53LvFhZdFrQ/xxOCneNzP+n2f3Wj/jRp4zqpm1hOszP8Nhy+oeGw5fUa4HlFpKvw5fk6/wYmy8MhyvsZ9YTT2NPqNQIzaeU8PoLw0nUT+uKa4ZerZDoLsZugY1pX3617VtMk7FOpGpFSi7pmu007MAAuQYmkbuNClUqz4NOLk+V8kV0t4XnOQaRvp16k6tV5nN56IriiuhHtO6TeNU6NBPhydSfkx1RT87b/lPAs6GFhaOt2v0Ofip3lq9i9QyrZLKtm0apDZVslshsAhsq2S2VbIJDZRhlWAGQw2Q2AGyjYbKtgkNlWw2VbBIbKsMEAHeNzP+n2f3Wj/jRwc7zucWLCzT1NWtDPR+zRqYzqc/Q28J1mUIyCMng+w7gIyMkEEl6NTeSUlxbenlNynxrjNDk21hUzBdGr9PVg6miq31SpvtzX3+3IwV45KRlAA7hqnLd3lzv72ceKlCFJdm+f4/UecbM7Ttbf3VzPlrVceSpNL1JGvbOvTVoJcEcio7zb4hsq2GyGy5QNlWw2VbIJDZRslsqwAyrYYbAIbKtktlGwCGyGw2VbBYNlWw2QQAAEu16kltb5ADJ0bYyuK1KjDhVZxprH0U9supLL8x3yulClvY6koqEV0JYx2Hke57uTlbLwm4jivUjvadN7aNN7W+Sb9S1cbR6W+rb6WFsj6+k4mlcWoU3Z70u97eR08HRazftGNkjIyQeROqMkZGSpUkkz9FT1zj0Jr8/wAjXGVo6WKiXKmvzNjBT1cRDvtzy+5WqrwZuQAerOecLrT30pS50nLteT5tlqsd7KUea2uxlGztHFDZVsNlWyCQ2UbJbKMANkMlJtpJNttJJJttvYkuNnR9y24aEFGreRU6j1xovDp0/L58ujZ17SlSpGCuzJTpubsjwujtC3NzroUJzjz8KMP65YXrN7T7nl7JZc6MeiVSef7Ys6fO4hDxeTVhbF0Hxd8+KK87OTV0tTg7XS7k2b8MCrZ5+Rzh9ze8+tt/SVvcK/Jte/W2/pK3uHSfDpc32jw6XN9pi+dU9/7WZOgrd5nNvk1vfrbf0lb3Cr7md59bbekre4dL8OlzfaPDpc32kfOae/8Aax0FbvM5n8md79bb+kre4Pkzvfrbb0lb3Dpfh8uavWPD5c32j51T3/tY6Ct3mc6tu5hcN/tbilBctJTqPsaiew0BuNtbJqok6tWOvvtbDcPJWyPXt6TZyvpcSx2mNVrSlwm37Ow16+motWjd+S/nyMlPBKLvb7mTd3mfFhs45GGRkZOBXrzrS1p/0b0YqKsiMkAgwFxkgEZK3JB9rN/tKfWvWfDJ9LP95Dyl7S9F/wDpD/peolsZ6EAHszlnE9O0t5dXMObWq48nfNr1YMBs9Fu/tu931R8VWFOquzev1wZ5xs68HeKfA5FRWk1xZDZVslsoyxUMqwyVFtpRWZSaUVyyexAHve5roFSze1Y5w3C3T2ZWqVX2xXVLoPcXdx9GPnYs7aNvQp0o8GjTjBdLSxl9b1mEeX0ri5X1Yvb6fn+TuYWiox97QADgm4ACMgEkZIIyVuSSRkjJGStybElcjJBFyQRkEFCwIBGSpIyRkZIyVuSMmRo9Zqw6M+pMxcmx0LDMpy5Pa/8A4bGChr4inHinyz+xSq7QbNwAD2JzDwXdRs/Ft66XBcqMv5vGj+GXac+bO3ac0crm3q0Hq75HxZP6M1rjLzNI4lcUpU5ThOLjOEnCcXtjJPDR0MLO8NXcc/FQtPW3+p82yGGVZtGsGzM0Is3NonsdxQT6t/EwmzM0G/nVp94ofjiVlsfcWh1kdwvuA+tGuNjf8DsNceJ0l+t4L1Z6Gj1QAQaBlGSMjJXJUmxOSMkEZK3LEkZIIyVuSCAQVbJRJGSMkZKkjJGRkjJS5YZIySQVbJIN7oylvaaztl4z8+z1YNPaUN/OMeJ630I9KdzQ1C8pVn/yvV8sl4s1MVPJRAAPQGkDxe7fco7j5xbpd/xicNSVaK2NPnpauldR7QFoTcHdFZwU1Zn5+qwlCUozi4zi8SjNOMovkaetMo2dx0poS3ul84oxqNLClrjUS5FOOGl5zQ1e51ZyeVKvBckakWv7otm7HFRazVjSlhZrY7nKmzL0C/nVn94t/wAcTo/yb2f1tx/XS9wva9z21p1KdSNSu5UqkKsVKdNxcoSUkn4mzUS8TTaa+wjhpp3y5nqL7gdhrcmy0hwGazJ5DSX6/gvudqj1QRkZIOcZhkgjJBVskkgmCy4rlNn8HQ6e0z0MJUrpuFst7KTqRhtNUQbX4Ohyy7V+hHwbDll2r9DP8qxHDn+CPjw9o1WSMm2+DYcsu1foPguHLLt/6K/KsRw5/gnpFP2jUZK5Nx8Fw5Zdv/Q+Cqf+7tX6EfKMTw5/gnpFP2jTZIN18E0+WXav0HwTT5Zdq/Qj5RieHP8ABPSaftGlJhFtpJZb2JbWblaKp9L62ZVG3hDgxS/MvT0NVb+uSS4Zv0t72FZYqNskfDR1p3uOvhPb1GaAehpUo0oKEFZI0pScndgAGQqAAAAAAAAAYukeA+tGrybTSP7t9aNVk89pT9fwX3Nyh1RkjIyVOaZiSMkArcsE8bNqPr4VU577T45K5JjUnHqya7m0HFPaffwupz2R4XU577T4ZCTbwllvYlrbHx6v+75y/kakdx9vDKnPZHhlT6x9pMrGqlneauhpvs2mMyZ1MRDruS73JeojGD2WZ9/DKn1j7Te2zbhBvW3FNvleDzZ6S14EPJj7EdTQ9Sc5z1pN5La2+3iYMVFKKsu0+wAO+aQAAAAAAAAAAAAAAAAABiaS/dvrRqTd3NPfQlHlRo2ef0tFqrGXY16PP1RuYd3i0MkAjJybmwCMjJGSrZYZIyRkjJVsknJt9EUkoKf0p519Txj1GmNtoi4W9VN7U210p6/1OhopwWJWtudu/Lztcw4lPUyNoafTNBJxmtWdUul8T9puDSaXuVJqEXqjltrZnkOzpZwWGkpeHf8A1e/C5q4dP4isYB6S14EPJj7DztKm5yjFbZf+5PTRjhJLYlhGhoSDvOfZkvHb5IzYt5JFgAegNIAAAAAAAAAAAAAAAAAAGuvrPOZxWv6S5TYgw16EK8NSezzT3r3weRaMnF3R5tlcm9uLSE9q18qNfV0ZNcFqXqPO19G16b+la64beW3lc3YV4S25GDkjJerRlHhRx0vPtPmc2X0u0lZ8TYWewnJAIKXJAB9adtUlwYZ6cYXayYRdR2itZ8FfyQbSzeRV15tYcm1yN6ikIttJLLexLabGjop/TkkuRfqbKhbRgvFWOXjbOrR0XiKzTqvVXHN8s7eOzia0sRCOUczH0fZbxZlrm+xGeAeio0YUYKEFZL3zNKUnJ3YABlKgAAAAAAAAAAAAAAAAAAAAAAAA+U6EZbYp+bJ9QGr5MGP4HT5iCs6fMXZkyAYvgUv9FyRbXlv82fOFNR2JLqSPoAZVkrFQAAAAAAAAAAAAAAAAAAAAAAAAAAACGUYBfJXfnzZVgH174O+HyZUA+3fB3w+JABkd8J35jkoA++/LZPgiyAPsD5ougCQAAAAAAAAAAAf/2Q==;" vertex="1" parent="1">
          <mxGeometry x="173" y="340" width="34" height="37.34" as="geometry" />
        </mxCell>
        <mxCell id="qoSOczia6jzgLVWpltz3-21" value="main_zxs.py" style="text;html=1;strokeColor=none;fillColor=none;align=center;verticalAlign=middle;whiteSpace=wrap;rounded=0;" vertex="1" parent="1">
          <mxGeometry x="165" y="377.34" width="50" height="27.34" as="geometry" />
        </mxCell>
        <mxCell id="qoSOczia6jzgLVWpltz3-22" value="" style="endArrow=classic;html=1;rounded=0;" edge="1" parent="1">
          <mxGeometry width="50" height="50" relative="1" as="geometry">
            <mxPoint x="189.66" y="210" as="sourcePoint" />
            <mxPoint x="189.66" y="330" as="targetPoint" />
          </mxGeometry>
        </mxCell>
        <mxCell id="qoSOczia6jzgLVWpltz3-23" value="" style="endArrow=classic;html=1;rounded=0;" edge="1" parent="1">
          <mxGeometry width="50" height="50" relative="1" as="geometry">
            <mxPoint x="409.65999999999997" y="210" as="sourcePoint" />
            <mxPoint x="409.65999999999997" y="330" as="targetPoint" />
          </mxGeometry>
        </mxCell>
        <mxCell id="qoSOczia6jzgLVWpltz3-24" value="" style="shape=image;verticalLabelPosition=bottom;labelBackgroundColor=default;verticalAlign=top;aspect=fixed;imageAspect=0;image=data:image/jpeg,/9j/4AAQSkZJRgABAQAAAQABAAD/2wCEAAkGBxEQEA4QDw8TEA8OERAPDxAOEBARDg4OFhgZGhYSFhQZHioiGRsoHhYUIzMkJys6MDEwGyE2OzYwOyowMDABCwsLDw4PGxERGToeHyctLS0tMi0vLzEvLy0tLS8tLy8wLy8vLS0vLy0vLy8vLy8vLy0xLS8vLS8tLy8vLy8vL//AABEIAOsA1gMBIgACEQEDEQH/xAAcAAEAAgMBAQEAAAAAAAAAAAAAAQIEBQcGAwj/xABIEAACAQMAAwkKCwcEAwAAAAAAAQIDBBEFITEGEjJBUVJhcZEHExQicoGTobHSFRYXJEJTVHSywdEjMzSCkqKzNWJz4WPw8f/EABoBAQACAwEAAAAAAAAAAAAAAAABAgMEBQb/xAA1EQACAQICBggFBAMBAAAAAAAAAQIDEQQhBRIxUWGRFDJBcYGhsfATFSLB4TOi0fFCUnIj/9oADAMBAAIRAxEAPwDuIAAAAAAAAB8rivCnGU6klCEdcpTaUUutlpzUU5SeFFNtvYktrOTbpNOTu6reWqUG+9U+JLntc5+rYZaNJ1HuRirVVTXE9ZpHd5Sg97QpyrPnSfe4ebKy+xHn7vdteT4EoU1xd7ppvHXPJ5ts+lS2qRjv5UpxhzpQkodrWDfjQpx7L95oSr1Jdtu4y6+n7ufCuq38s5QXZHBh1LyrLhVakvKqTftZ8GyrZl1Uti8jE5Se1+bLSk3teeshVGtkmuptFWyrYBkw0jXjwa9WPk1akfYzMobp72nwbqr/ADtVPxpmnbIZDjF7V5IspS3+Z6+w7oVzBpVYU60ePV3qo/OtX9p7XQO6e3vPFpyca2MujUwqmONx4pLq8+DjLEZuLUotxlFpxlFtSjJbGmtjMM8PCWxWZlhiJx25n6DB4/cNuo8Ki6NdrwimsqWpd+gvpY4pLVledcePYHPlFxdmdCMlJXQABUsAAAAAAAAAAAAAAAAAAaLdnXdOxrtbZKNPzTklL1NnKGdO7oT+ZP8A5KftOYM6OE6nic7F9fwPfbgdCQ72rqcVKcpSVLfLKpxi8OSXObT18i6We1ks6nrT1NPY0eX7n2kI1LVUc+PQlNSjxuEpOUZdWtrzHqjTrtuo7+0blCypq3tnL93ehIW9SnVpRUadbfZgtUYVFjOFxJp7OLDPKtnt+6bpGMpUbeLTlTzVqY+i2sRj14y+zlPDNm/QbdNXNCukqjsGyrYbKNmUxBsqyWVYAZDYbKtgGRo2/lb1qVaHCpTU8c5fSj1NZXnO90qqnGMovMZpSi+VNZTPzyzu25mWbKyb2+DUP8cTSxaVk/A3cI9qNoADTNwAAAAAAAAAAAAAAAAAA8z3Qv4J/wDLT9rOXNnU93lCdSzcacJ1Jd8g97TjKcsa9eFrOcvQ119lr+gq+6dDCtKn4s5+Ki3UyXYjGtbmpSmp05yhOOyUHh9XSug29XdlfSjve/Y4nKNOmpvz41eYwHoa6+y1/QVfdKvQt19kr+gq+6ZpKDzdmYY/EWSuuZgzm225NuUm23Jtybe1tvayjZnvQt39kr+hq+6Q9C3f2S49BV90trLeRqS3GubIZnz0NdJNu1rpJNtujUSSW1t73UjXNkpp7GQ01tDZDZLZVsEBso2GyrYJDZ3bcv8AwNj92ofgicHbO8bl/wCBsfu1D8ETUxfVXebeF2s2oANE3QAAAAAAAAAAaXdDp+nZwTl49Safe6aeG/8Ac3xRJjFydkRKSirs285qKbk0ktbbeEl0s01zursqbw66k/8AxRlUX9UU16zm+ltL1rmW+q1G1nMacdVKHVH83r6TXs3YYRbZPkaU8W/8VzOnvdxZ86p6KRHx5s+dU9Gzl7ZVsv0SnxKdKqcDqPx7sudU9FIfHuy51T0UjljZDY6LT4jpVTgdT+PllzqnopD4+WXOqeikcpbKtjotPiOlVOB1f4/WXOqeikR8f7HnVPRSOUNlWOi0+JPSqnA6jpDdzZTo1YRlU306c4RzSljfOLSOWhsq2ZKdKNPYYqlWU9obKNktlWzIUIbKtktlWwSQ2d53LvFhZdFrQ/xxOCneNzP+n2f3Wj/jRp4zqpm1hOszP8Nhy+oeGw5fUa4HlFpKvw5fk6/wYmy8MhyvsZ9YTT2NPqNQIzaeU8PoLw0nUT+uKa4ZerZDoLsZugY1pX3617VtMk7FOpGpFSi7pmu007MAAuQYmkbuNClUqz4NOLk+V8kV0t4XnOQaRvp16k6tV5nN56IriiuhHtO6TeNU6NBPhydSfkx1RT87b/lPAs6GFhaOt2v0Ofip3lq9i9QyrZLKtm0apDZVslshsAhsq2S2VbIJDZRhlWAGQw2Q2AGyjYbKtgkNlWw2VbBIbKsMEAHeNzP+n2f3Wj/jRwc7zucWLCzT1NWtDPR+zRqYzqc/Q28J1mUIyCMng+w7gIyMkEEl6NTeSUlxbenlNynxrjNDk21hUzBdGr9PVg6miq31SpvtzX3+3IwV45KRlAA7hqnLd3lzv72ceKlCFJdm+f4/UecbM7Ttbf3VzPlrVceSpNL1JGvbOvTVoJcEcio7zb4hsq2GyGy5QNlWw2VbIJDZRslsqwAyrYYbAIbKtktlGwCGyGw2VbBYNlWw2QQAAEu16kltb5ADJ0bYyuK1KjDhVZxprH0U9supLL8x3yulClvY6koqEV0JYx2Hke57uTlbLwm4jivUjvadN7aNN7W+Sb9S1cbR6W+rb6WFsj6+k4mlcWoU3Z70u97eR08HRazftGNkjIyQeROqMkZGSpUkkz9FT1zj0Jr8/wAjXGVo6WKiXKmvzNjBT1cRDvtzy+5WqrwZuQAerOecLrT30pS50nLteT5tlqsd7KUea2uxlGztHFDZVsNlWyCQ2UbJbKMANkMlJtpJNttJJJttvYkuNnR9y24aEFGreRU6j1xovDp0/L58ujZ17SlSpGCuzJTpubsjwujtC3NzroUJzjz8KMP65YXrN7T7nl7JZc6MeiVSef7Ys6fO4hDxeTVhbF0Hxd8+KK87OTV0tTg7XS7k2b8MCrZ5+Rzh9ze8+tt/SVvcK/Jte/W2/pK3uHSfDpc32jw6XN9pi+dU9/7WZOgrd5nNvk1vfrbf0lb3Cr7md59bbekre4dL8OlzfaPDpc32kfOae/8Aax0FbvM5n8md79bb+kre4Pkzvfrbb0lb3Dpfh8uavWPD5c32j51T3/tY6Ct3mc6tu5hcN/tbilBctJTqPsaiew0BuNtbJqok6tWOvvtbDcPJWyPXt6TZyvpcSx2mNVrSlwm37Ow16+motWjd+S/nyMlPBKLvb7mTd3mfFhs45GGRkZOBXrzrS1p/0b0YqKsiMkAgwFxkgEZK3JB9rN/tKfWvWfDJ9LP95Dyl7S9F/wDpD/peolsZ6EAHszlnE9O0t5dXMObWq48nfNr1YMBs9Fu/tu931R8VWFOquzev1wZ5xs68HeKfA5FRWk1xZDZVslsoyxUMqwyVFtpRWZSaUVyyexAHve5roFSze1Y5w3C3T2ZWqVX2xXVLoPcXdx9GPnYs7aNvQp0o8GjTjBdLSxl9b1mEeX0ri5X1Yvb6fn+TuYWiox97QADgm4ACMgEkZIIyVuSSRkjJGStybElcjJBFyQRkEFCwIBGSpIyRkZIyVuSMmRo9Zqw6M+pMxcmx0LDMpy5Pa/8A4bGChr4inHinyz+xSq7QbNwAD2JzDwXdRs/Ft66XBcqMv5vGj+GXac+bO3ac0crm3q0Hq75HxZP6M1rjLzNI4lcUpU5ThOLjOEnCcXtjJPDR0MLO8NXcc/FQtPW3+p82yGGVZtGsGzM0Is3NonsdxQT6t/EwmzM0G/nVp94ofjiVlsfcWh1kdwvuA+tGuNjf8DsNceJ0l+t4L1Z6Gj1QAQaBlGSMjJXJUmxOSMkEZK3LEkZIIyVuSCAQVbJRJGSMkZKkjJGRkjJS5YZIySQVbJIN7oylvaaztl4z8+z1YNPaUN/OMeJ630I9KdzQ1C8pVn/yvV8sl4s1MVPJRAAPQGkDxe7fco7j5xbpd/xicNSVaK2NPnpauldR7QFoTcHdFZwU1Zn5+qwlCUozi4zi8SjNOMovkaetMo2dx0poS3ul84oxqNLClrjUS5FOOGl5zQ1e51ZyeVKvBckakWv7otm7HFRazVjSlhZrY7nKmzL0C/nVn94t/wAcTo/yb2f1tx/XS9wva9z21p1KdSNSu5UqkKsVKdNxcoSUkn4mzUS8TTaa+wjhpp3y5nqL7gdhrcmy0hwGazJ5DSX6/gvudqj1QRkZIOcZhkgjJBVskkgmCy4rlNn8HQ6e0z0MJUrpuFst7KTqRhtNUQbX4Ohyy7V+hHwbDll2r9DP8qxHDn+CPjw9o1WSMm2+DYcsu1foPguHLLt/6K/KsRw5/gnpFP2jUZK5Nx8Fw5Zdv/Q+Cqf+7tX6EfKMTw5/gnpFP2jTZIN18E0+WXav0HwTT5Zdq/Qj5RieHP8ABPSaftGlJhFtpJZb2JbWblaKp9L62ZVG3hDgxS/MvT0NVb+uSS4Zv0t72FZYqNskfDR1p3uOvhPb1GaAehpUo0oKEFZI0pScndgAGQqAAAAAAAAAYukeA+tGrybTSP7t9aNVk89pT9fwX3Nyh1RkjIyVOaZiSMkArcsE8bNqPr4VU577T45K5JjUnHqya7m0HFPaffwupz2R4XU577T4ZCTbwllvYlrbHx6v+75y/kakdx9vDKnPZHhlT6x9pMrGqlneauhpvs2mMyZ1MRDruS73JeojGD2WZ9/DKn1j7Te2zbhBvW3FNvleDzZ6S14EPJj7EdTQ9Sc5z1pN5La2+3iYMVFKKsu0+wAO+aQAAAAAAAAAAAAAAAAABiaS/dvrRqTd3NPfQlHlRo2ef0tFqrGXY16PP1RuYd3i0MkAjJybmwCMjJGSrZYZIyRkjJVsknJt9EUkoKf0p519Txj1GmNtoi4W9VN7U210p6/1OhopwWJWtudu/Lztcw4lPUyNoafTNBJxmtWdUul8T9puDSaXuVJqEXqjltrZnkOzpZwWGkpeHf8A1e/C5q4dP4isYB6S14EPJj7DztKm5yjFbZf+5PTRjhJLYlhGhoSDvOfZkvHb5IzYt5JFgAegNIAAAAAAAAAAAAAAAAAAGuvrPOZxWv6S5TYgw16EK8NSezzT3r3weRaMnF3R5tlcm9uLSE9q18qNfV0ZNcFqXqPO19G16b+la64beW3lc3YV4S25GDkjJerRlHhRx0vPtPmc2X0u0lZ8TYWewnJAIKXJAB9adtUlwYZ6cYXayYRdR2itZ8FfyQbSzeRV15tYcm1yN6ikIttJLLexLabGjop/TkkuRfqbKhbRgvFWOXjbOrR0XiKzTqvVXHN8s7eOzia0sRCOUczH0fZbxZlrm+xGeAeio0YUYKEFZL3zNKUnJ3YABlKgAAAAAAAAAAAAAAAAAAAAAAAA+U6EZbYp+bJ9QGr5MGP4HT5iCs6fMXZkyAYvgUv9FyRbXlv82fOFNR2JLqSPoAZVkrFQAAAAAAAAAAAAAAAAAAAAAAAAAAACGUYBfJXfnzZVgH174O+HyZUA+3fB3w+JABkd8J35jkoA++/LZPgiyAPsD5ougCQAAAAAAAAAAAf/2Q==;" vertex="1" parent="1">
          <mxGeometry x="393" y="340" width="34" height="37.34" as="geometry" />
        </mxCell>
        <mxCell id="qoSOczia6jzgLVWpltz3-25" value="main_asp.py" style="text;html=1;strokeColor=none;fillColor=none;align=center;verticalAlign=middle;whiteSpace=wrap;rounded=0;" vertex="1" parent="1">
          <mxGeometry x="385" y="377.34" width="50" height="27.34" as="geometry" />
        </mxCell>
        <mxCell id="qoSOczia6jzgLVWpltz3-26" value="" style="shape=image;verticalLabelPosition=bottom;labelBackgroundColor=default;verticalAlign=top;aspect=fixed;imageAspect=0;image=data:image/jpeg,/9j/4AAQSkZJRgABAQAAAQABAAD/2wCEAAkGBxEQEA4QDw8TEA8OERAPDxAOEBARDg4OFhgZGhYSFhQZHioiGRsoHhYUIzMkJys6MDEwGyE2OzYwOyowMDABCwsLDw4PGxERGToeHyctLS0tMi0vLzEvLy0tLS8tLy8wLy8vLS0vLy0vLy8vLy8vLy0xLS8vLS8tLy8vLy8vL//AABEIAOsA1gMBIgACEQEDEQH/xAAcAAEAAgMBAQEAAAAAAAAAAAAAAQIEBQcGAwj/xABIEAACAQMAAwkKCwcEAwAAAAAAAQIDBBEFITEGEjJBUVJhcZEHExQicoGTobHSFRYXJEJTVHSywdEjMzSCkqKzNWJz4WPw8f/EABoBAQACAwEAAAAAAAAAAAAAAAABAgMEBQb/xAA1EQACAQICBggFBAMBAAAAAAAAAQIDEQQhBRIxUWGRFDJBcYGhsfATFSLB4TOi0fFCUnIj/9oADAMBAAIRAxEAPwDuIAAAAAAAAB8rivCnGU6klCEdcpTaUUutlpzUU5SeFFNtvYktrOTbpNOTu6reWqUG+9U+JLntc5+rYZaNJ1HuRirVVTXE9ZpHd5Sg97QpyrPnSfe4ebKy+xHn7vdteT4EoU1xd7ppvHXPJ5ts+lS2qRjv5UpxhzpQkodrWDfjQpx7L95oSr1Jdtu4y6+n7ufCuq38s5QXZHBh1LyrLhVakvKqTftZ8GyrZl1Uti8jE5Se1+bLSk3teeshVGtkmuptFWyrYBkw0jXjwa9WPk1akfYzMobp72nwbqr/ADtVPxpmnbIZDjF7V5IspS3+Z6+w7oVzBpVYU60ePV3qo/OtX9p7XQO6e3vPFpyca2MujUwqmONx4pLq8+DjLEZuLUotxlFpxlFtSjJbGmtjMM8PCWxWZlhiJx25n6DB4/cNuo8Ki6NdrwimsqWpd+gvpY4pLVledcePYHPlFxdmdCMlJXQABUsAAAAAAAAAAAAAAAAAAaLdnXdOxrtbZKNPzTklL1NnKGdO7oT+ZP8A5KftOYM6OE6nic7F9fwPfbgdCQ72rqcVKcpSVLfLKpxi8OSXObT18i6We1ks6nrT1NPY0eX7n2kI1LVUc+PQlNSjxuEpOUZdWtrzHqjTrtuo7+0blCypq3tnL93ehIW9SnVpRUadbfZgtUYVFjOFxJp7OLDPKtnt+6bpGMpUbeLTlTzVqY+i2sRj14y+zlPDNm/QbdNXNCukqjsGyrYbKNmUxBsqyWVYAZDYbKtgGRo2/lb1qVaHCpTU8c5fSj1NZXnO90qqnGMovMZpSi+VNZTPzyzu25mWbKyb2+DUP8cTSxaVk/A3cI9qNoADTNwAAAAAAAAAAAAAAAAAA8z3Qv4J/wDLT9rOXNnU93lCdSzcacJ1Jd8g97TjKcsa9eFrOcvQ119lr+gq+6dDCtKn4s5+Ki3UyXYjGtbmpSmp05yhOOyUHh9XSug29XdlfSjve/Y4nKNOmpvz41eYwHoa6+y1/QVfdKvQt19kr+gq+6ZpKDzdmYY/EWSuuZgzm225NuUm23Jtybe1tvayjZnvQt39kr+hq+6Q9C3f2S49BV90trLeRqS3GubIZnz0NdJNu1rpJNtujUSSW1t73UjXNkpp7GQ01tDZDZLZVsEBso2GyrYJDZ3bcv8AwNj92ofgicHbO8bl/wCBsfu1D8ETUxfVXebeF2s2oANE3QAAAAAAAAAAaXdDp+nZwTl49Safe6aeG/8Ac3xRJjFydkRKSirs285qKbk0ktbbeEl0s01zursqbw66k/8AxRlUX9UU16zm+ltL1rmW+q1G1nMacdVKHVH83r6TXs3YYRbZPkaU8W/8VzOnvdxZ86p6KRHx5s+dU9Gzl7ZVsv0SnxKdKqcDqPx7sudU9FIfHuy51T0UjljZDY6LT4jpVTgdT+PllzqnopD4+WXOqeikcpbKtjotPiOlVOB1f4/WXOqeikR8f7HnVPRSOUNlWOi0+JPSqnA6jpDdzZTo1YRlU306c4RzSljfOLSOWhsq2ZKdKNPYYqlWU9obKNktlWzIUIbKtktlWwSQ2d53LvFhZdFrQ/xxOCneNzP+n2f3Wj/jRp4zqpm1hOszP8Nhy+oeGw5fUa4HlFpKvw5fk6/wYmy8MhyvsZ9YTT2NPqNQIzaeU8PoLw0nUT+uKa4ZerZDoLsZugY1pX3617VtMk7FOpGpFSi7pmu007MAAuQYmkbuNClUqz4NOLk+V8kV0t4XnOQaRvp16k6tV5nN56IriiuhHtO6TeNU6NBPhydSfkx1RT87b/lPAs6GFhaOt2v0Ofip3lq9i9QyrZLKtm0apDZVslshsAhsq2S2VbIJDZRhlWAGQw2Q2AGyjYbKtgkNlWw2VbBIbKsMEAHeNzP+n2f3Wj/jRwc7zucWLCzT1NWtDPR+zRqYzqc/Q28J1mUIyCMng+w7gIyMkEEl6NTeSUlxbenlNynxrjNDk21hUzBdGr9PVg6miq31SpvtzX3+3IwV45KRlAA7hqnLd3lzv72ceKlCFJdm+f4/UecbM7Ttbf3VzPlrVceSpNL1JGvbOvTVoJcEcio7zb4hsq2GyGy5QNlWw2VbIJDZRslsqwAyrYYbAIbKtktlGwCGyGw2VbBYNlWw2QQAAEu16kltb5ADJ0bYyuK1KjDhVZxprH0U9supLL8x3yulClvY6koqEV0JYx2Hke57uTlbLwm4jivUjvadN7aNN7W+Sb9S1cbR6W+rb6WFsj6+k4mlcWoU3Z70u97eR08HRazftGNkjIyQeROqMkZGSpUkkz9FT1zj0Jr8/wAjXGVo6WKiXKmvzNjBT1cRDvtzy+5WqrwZuQAerOecLrT30pS50nLteT5tlqsd7KUea2uxlGztHFDZVsNlWyCQ2UbJbKMANkMlJtpJNttJJJttvYkuNnR9y24aEFGreRU6j1xovDp0/L58ujZ17SlSpGCuzJTpubsjwujtC3NzroUJzjz8KMP65YXrN7T7nl7JZc6MeiVSef7Ys6fO4hDxeTVhbF0Hxd8+KK87OTV0tTg7XS7k2b8MCrZ5+Rzh9ze8+tt/SVvcK/Jte/W2/pK3uHSfDpc32jw6XN9pi+dU9/7WZOgrd5nNvk1vfrbf0lb3Cr7md59bbekre4dL8OlzfaPDpc32kfOae/8Aax0FbvM5n8md79bb+kre4Pkzvfrbb0lb3Dpfh8uavWPD5c32j51T3/tY6Ct3mc6tu5hcN/tbilBctJTqPsaiew0BuNtbJqok6tWOvvtbDcPJWyPXt6TZyvpcSx2mNVrSlwm37Ow16+motWjd+S/nyMlPBKLvb7mTd3mfFhs45GGRkZOBXrzrS1p/0b0YqKsiMkAgwFxkgEZK3JB9rN/tKfWvWfDJ9LP95Dyl7S9F/wDpD/peolsZ6EAHszlnE9O0t5dXMObWq48nfNr1YMBs9Fu/tu931R8VWFOquzev1wZ5xs68HeKfA5FRWk1xZDZVslsoyxUMqwyVFtpRWZSaUVyyexAHve5roFSze1Y5w3C3T2ZWqVX2xXVLoPcXdx9GPnYs7aNvQp0o8GjTjBdLSxl9b1mEeX0ri5X1Yvb6fn+TuYWiox97QADgm4ACMgEkZIIyVuSSRkjJGStybElcjJBFyQRkEFCwIBGSpIyRkZIyVuSMmRo9Zqw6M+pMxcmx0LDMpy5Pa/8A4bGChr4inHinyz+xSq7QbNwAD2JzDwXdRs/Ft66XBcqMv5vGj+GXac+bO3ac0crm3q0Hq75HxZP6M1rjLzNI4lcUpU5ThOLjOEnCcXtjJPDR0MLO8NXcc/FQtPW3+p82yGGVZtGsGzM0Is3NonsdxQT6t/EwmzM0G/nVp94ofjiVlsfcWh1kdwvuA+tGuNjf8DsNceJ0l+t4L1Z6Gj1QAQaBlGSMjJXJUmxOSMkEZK3LEkZIIyVuSCAQVbJRJGSMkZKkjJGRkjJS5YZIySQVbJIN7oylvaaztl4z8+z1YNPaUN/OMeJ630I9KdzQ1C8pVn/yvV8sl4s1MVPJRAAPQGkDxe7fco7j5xbpd/xicNSVaK2NPnpauldR7QFoTcHdFZwU1Zn5+qwlCUozi4zi8SjNOMovkaetMo2dx0poS3ul84oxqNLClrjUS5FOOGl5zQ1e51ZyeVKvBckakWv7otm7HFRazVjSlhZrY7nKmzL0C/nVn94t/wAcTo/yb2f1tx/XS9wva9z21p1KdSNSu5UqkKsVKdNxcoSUkn4mzUS8TTaa+wjhpp3y5nqL7gdhrcmy0hwGazJ5DSX6/gvudqj1QRkZIOcZhkgjJBVskkgmCy4rlNn8HQ6e0z0MJUrpuFst7KTqRhtNUQbX4Ohyy7V+hHwbDll2r9DP8qxHDn+CPjw9o1WSMm2+DYcsu1foPguHLLt/6K/KsRw5/gnpFP2jUZK5Nx8Fw5Zdv/Q+Cqf+7tX6EfKMTw5/gnpFP2jTZIN18E0+WXav0HwTT5Zdq/Qj5RieHP8ABPSaftGlJhFtpJZb2JbWblaKp9L62ZVG3hDgxS/MvT0NVb+uSS4Zv0t72FZYqNskfDR1p3uOvhPb1GaAehpUo0oKEFZI0pScndgAGQqAAAAAAAAAYukeA+tGrybTSP7t9aNVk89pT9fwX3Nyh1RkjIyVOaZiSMkArcsE8bNqPr4VU577T45K5JjUnHqya7m0HFPaffwupz2R4XU577T4ZCTbwllvYlrbHx6v+75y/kakdx9vDKnPZHhlT6x9pMrGqlneauhpvs2mMyZ1MRDruS73JeojGD2WZ9/DKn1j7Te2zbhBvW3FNvleDzZ6S14EPJj7EdTQ9Sc5z1pN5La2+3iYMVFKKsu0+wAO+aQAAAAAAAAAAAAAAAAABiaS/dvrRqTd3NPfQlHlRo2ef0tFqrGXY16PP1RuYd3i0MkAjJybmwCMjJGSrZYZIyRkjJVsknJt9EUkoKf0p519Txj1GmNtoi4W9VN7U210p6/1OhopwWJWtudu/Lztcw4lPUyNoafTNBJxmtWdUul8T9puDSaXuVJqEXqjltrZnkOzpZwWGkpeHf8A1e/C5q4dP4isYB6S14EPJj7DztKm5yjFbZf+5PTRjhJLYlhGhoSDvOfZkvHb5IzYt5JFgAegNIAAAAAAAAAAAAAAAAAAGuvrPOZxWv6S5TYgw16EK8NSezzT3r3weRaMnF3R5tlcm9uLSE9q18qNfV0ZNcFqXqPO19G16b+la64beW3lc3YV4S25GDkjJerRlHhRx0vPtPmc2X0u0lZ8TYWewnJAIKXJAB9adtUlwYZ6cYXayYRdR2itZ8FfyQbSzeRV15tYcm1yN6ikIttJLLexLabGjop/TkkuRfqbKhbRgvFWOXjbOrR0XiKzTqvVXHN8s7eOzia0sRCOUczH0fZbxZlrm+xGeAeio0YUYKEFZL3zNKUnJ3YABlKgAAAAAAAAAAAAAAAAAAAAAAAA+U6EZbYp+bJ9QGr5MGP4HT5iCs6fMXZkyAYvgUv9FyRbXlv82fOFNR2JLqSPoAZVkrFQAAAAAAAAAAAAAAAAAAAAAAAAAAACGUYBfJXfnzZVgH174O+HyZUA+3fB3w+JABkd8J35jkoA++/LZPgiyAPsD5ougCQAAAAAAAAAAAf/2Q==;" vertex="1" parent="1">
          <mxGeometry x="483" y="340" width="34" height="37.34" as="geometry" />
        </mxCell>
        <mxCell id="qoSOczia6jzgLVWpltz3-27" value="" style="endArrow=classic;html=1;rounded=0;" edge="1" parent="1">
          <mxGeometry width="50" height="50" relative="1" as="geometry">
            <mxPoint x="499.65999999999997" y="210" as="sourcePoint" />
            <mxPoint x="499.65999999999997" y="330" as="targetPoint" />
          </mxGeometry>
        </mxCell>
        <mxCell id="qoSOczia6jzgLVWpltz3-28" value="main_fsp.py" style="text;html=1;strokeColor=none;fillColor=none;align=center;verticalAlign=middle;whiteSpace=wrap;rounded=0;" vertex="1" parent="1">
          <mxGeometry x="475" y="377.34" width="50" height="27.34" as="geometry" />
        </mxCell>
        <mxCell id="qoSOczia6jzgLVWpltz3-29" value="" style="sketch=0;html=1;dashed=0;whitespace=wrap;fillColor=#2875E2;strokeColor=#ffffff;points=[[0.005,0.63,0],[0.1,0.2,0],[0.9,0.2,0],[0.5,0,0],[0.995,0.63,0],[0.72,0.99,0],[0.5,1,0],[0.28,0.99,0]];verticalLabelPosition=bottom;align=center;verticalAlign=top;shape=mxgraph.kubernetes.icon;prIcon=api" vertex="1" parent="1">
          <mxGeometry x="472.5" y="90" width="55" height="60" as="geometry" />
        </mxCell>
        <mxCell id="qoSOczia6jzgLVWpltz3-31" value="" style="outlineConnect=0;dashed=0;verticalLabelPosition=bottom;verticalAlign=top;align=center;html=1;shape=mxgraph.aws3.s3;fillColor=#E05243;gradientColor=none;" vertex="1" parent="1">
          <mxGeometry x="45" y="460" width="20" height="21" as="geometry" />
        </mxCell>
        <mxCell id="qoSOczia6jzgLVWpltz3-32" value="" style="image;aspect=fixed;perimeter=ellipsePerimeter;html=1;align=center;shadow=0;dashed=0;spacingTop=3;image=img/lib/active_directory/folder_open.svg;" vertex="1" parent="1">
          <mxGeometry x="68.59999999999997" y="460.5" width="18.4" height="20" as="geometry" />
        </mxCell>
        <mxCell id="qoSOczia6jzgLVWpltz3-33" value="" style="outlineConnect=0;dashed=0;verticalLabelPosition=bottom;verticalAlign=top;align=center;html=1;shape=mxgraph.aws3.s3;fillColor=#E05243;gradientColor=none;" vertex="1" parent="1">
          <mxGeometry x="160" y="459.5" width="20" height="21" as="geometry" />
        </mxCell>
        <mxCell id="qoSOczia6jzgLVWpltz3-34" value="" style="image;aspect=fixed;perimeter=ellipsePerimeter;html=1;align=center;shadow=0;dashed=0;spacingTop=3;image=img/lib/active_directory/folder_open.svg;" vertex="1" parent="1">
          <mxGeometry x="183.59999999999997" y="460" width="18.4" height="20" as="geometry" />
        </mxCell>
        <mxCell id="qoSOczia6jzgLVWpltz3-35" value="" style="outlineConnect=0;dashed=0;verticalLabelPosition=bottom;verticalAlign=top;align=center;html=1;shape=mxgraph.aws3.s3;fillColor=#E05243;gradientColor=none;" vertex="1" parent="1">
          <mxGeometry x="389" y="459" width="20" height="21" as="geometry" />
        </mxCell>
        <mxCell id="qoSOczia6jzgLVWpltz3-36" value="" style="image;aspect=fixed;perimeter=ellipsePerimeter;html=1;align=center;shadow=0;dashed=0;spacingTop=3;image=img/lib/active_directory/folder_open.svg;" vertex="1" parent="1">
          <mxGeometry x="412.59999999999997" y="459.5" width="18.4" height="20" as="geometry" />
        </mxCell>
        <mxCell id="qoSOczia6jzgLVWpltz3-38" value="" style="outlineConnect=0;dashed=0;verticalLabelPosition=bottom;verticalAlign=top;align=center;html=1;shape=mxgraph.aws3.s3;fillColor=#E05243;gradientColor=none;" vertex="1" parent="1">
          <mxGeometry x="475" y="458.5" width="20" height="21" as="geometry" />
        </mxCell>
        <mxCell id="qoSOczia6jzgLVWpltz3-39" value="" style="image;aspect=fixed;perimeter=ellipsePerimeter;html=1;align=center;shadow=0;dashed=0;spacingTop=3;image=img/lib/active_directory/folder_open.svg;" vertex="1" parent="1">
          <mxGeometry x="498.59999999999997" y="459" width="18.4" height="20" as="geometry" />
        </mxCell>
        <mxCell id="qoSOczia6jzgLVWpltz3-40" value="S3 / Local File Path" style="text;html=1;strokeColor=none;fillColor=none;align=center;verticalAlign=middle;whiteSpace=wrap;rounded=0;" vertex="1" parent="1">
          <mxGeometry x="271.11" y="454" width="60" height="30" as="geometry" />
        </mxCell>
        <mxCell id="qoSOczia6jzgLVWpltz3-41" value="" style="endArrow=classic;html=1;rounded=0;" edge="1" parent="1">
          <mxGeometry width="50" height="50" relative="1" as="geometry">
            <mxPoint x="69.66000000000003" y="404.68" as="sourcePoint" />
            <mxPoint x="69.66000000000003" y="444.68" as="targetPoint" />
          </mxGeometry>
        </mxCell>
        <mxCell id="qoSOczia6jzgLVWpltz3-42" value="" style="endArrow=classic;html=1;rounded=0;" edge="1" parent="1">
          <mxGeometry width="50" height="50" relative="1" as="geometry">
            <mxPoint x="189.66000000000003" y="404.68" as="sourcePoint" />
            <mxPoint x="189.66000000000003" y="444.68" as="targetPoint" />
          </mxGeometry>
        </mxCell>
        <mxCell id="qoSOczia6jzgLVWpltz3-43" value="" style="endArrow=classic;html=1;rounded=0;" edge="1" parent="1">
          <mxGeometry width="50" height="50" relative="1" as="geometry">
            <mxPoint x="409.66" y="404.68" as="sourcePoint" />
            <mxPoint x="409.66" y="444.68" as="targetPoint" />
          </mxGeometry>
        </mxCell>
        <mxCell id="qoSOczia6jzgLVWpltz3-44" value="" style="endArrow=classic;html=1;rounded=0;" edge="1" parent="1">
          <mxGeometry width="50" height="50" relative="1" as="geometry">
            <mxPoint x="500" y="404.68" as="sourcePoint" />
            <mxPoint x="500" y="444.68" as="targetPoint" />
          </mxGeometry>
        </mxCell>
        <mxCell id="qoSOczia6jzgLVWpltz3-45" value="" style="shape=image;html=1;verticalAlign=top;verticalLabelPosition=bottom;labelBackgroundColor=#ffffff;imageAspect=0;aspect=fixed;image=https://cdn3.iconfinder.com/data/icons/document-icons-2/30/647702-excel-128.png" vertex="1" parent="1">
          <mxGeometry x="272.11" y="540" width="59" height="59" as="geometry" />
        </mxCell>
        <mxCell id="qoSOczia6jzgLVWpltz3-46" value="Climate Observations Spreadsheet" style="text;html=1;strokeColor=none;fillColor=none;align=center;verticalAlign=middle;whiteSpace=wrap;rounded=0;" vertex="1" parent="1">
          <mxGeometry x="262.17" y="599" width="78.89" height="40" as="geometry" />
        </mxCell>
        <mxCell id="qoSOczia6jzgLVWpltz3-50" value="" style="endArrow=classic;html=1;rounded=0;" edge="1" parent="1">
          <mxGeometry width="50" height="50" relative="1" as="geometry">
            <mxPoint x="60" y="490" as="sourcePoint" />
            <mxPoint x="260" y="570" as="targetPoint" />
          </mxGeometry>
        </mxCell>
        <mxCell id="qoSOczia6jzgLVWpltz3-51" value="" style="endArrow=classic;html=1;rounded=0;" edge="1" parent="1">
          <mxGeometry width="50" height="50" relative="1" as="geometry">
            <mxPoint x="180" y="490" as="sourcePoint" />
            <mxPoint x="260" y="560" as="targetPoint" />
          </mxGeometry>
        </mxCell>
        <mxCell id="qoSOczia6jzgLVWpltz3-52" value="" style="endArrow=classic;html=1;rounded=0;" edge="1" parent="1">
          <mxGeometry width="50" height="50" relative="1" as="geometry">
            <mxPoint x="410" y="490" as="sourcePoint" />
            <mxPoint x="340" y="560" as="targetPoint" />
          </mxGeometry>
        </mxCell>
        <mxCell id="qoSOczia6jzgLVWpltz3-53" value="" style="endArrow=classic;html=1;rounded=0;" edge="1" parent="1">
          <mxGeometry width="50" height="50" relative="1" as="geometry">
            <mxPoint x="500" y="480" as="sourcePoint" />
            <mxPoint x="340" y="570" as="targetPoint" />
          </mxGeometry>
        </mxCell>
        <mxCell id="qoSOczia6jzgLVWpltz3-54" value="" style="shape=image;verticalLabelPosition=bottom;labelBackgroundColor=default;verticalAlign=top;aspect=fixed;imageAspect=0;image=data:image/jpeg,/9j/4AAQSkZJRgABAQAAAQABAAD/2wCEAAkGBxEQEA4QDw8TEA8OERAPDxAOEBARDg4OFhgZGhYSFhQZHioiGRsoHhYUIzMkJys6MDEwGyE2OzYwOyowMDABCwsLDw4PGxERGToeHyctLS0tMi0vLzEvLy0tLS8tLy8wLy8vLS0vLy0vLy8vLy8vLy0xLS8vLS8tLy8vLy8vL//AABEIAOsA1gMBIgACEQEDEQH/xAAcAAEAAgMBAQEAAAAAAAAAAAAAAQIEBQcGAwj/xABIEAACAQMAAwkKCwcEAwAAAAAAAQIDBBEFITEGEjJBUVJhcZEHExQicoGTobHSFRYXJEJTVHSywdEjMzSCkqKzNWJz4WPw8f/EABoBAQACAwEAAAAAAAAAAAAAAAABAgMEBQb/xAA1EQACAQICBggFBAMBAAAAAAAAAQIDEQQhBRIxUWGRFDJBcYGhsfATFSLB4TOi0fFCUnIj/9oADAMBAAIRAxEAPwDuIAAAAAAAAB8rivCnGU6klCEdcpTaUUutlpzUU5SeFFNtvYktrOTbpNOTu6reWqUG+9U+JLntc5+rYZaNJ1HuRirVVTXE9ZpHd5Sg97QpyrPnSfe4ebKy+xHn7vdteT4EoU1xd7ppvHXPJ5ts+lS2qRjv5UpxhzpQkodrWDfjQpx7L95oSr1Jdtu4y6+n7ufCuq38s5QXZHBh1LyrLhVakvKqTftZ8GyrZl1Uti8jE5Se1+bLSk3teeshVGtkmuptFWyrYBkw0jXjwa9WPk1akfYzMobp72nwbqr/ADtVPxpmnbIZDjF7V5IspS3+Z6+w7oVzBpVYU60ePV3qo/OtX9p7XQO6e3vPFpyca2MujUwqmONx4pLq8+DjLEZuLUotxlFpxlFtSjJbGmtjMM8PCWxWZlhiJx25n6DB4/cNuo8Ki6NdrwimsqWpd+gvpY4pLVledcePYHPlFxdmdCMlJXQABUsAAAAAAAAAAAAAAAAAAaLdnXdOxrtbZKNPzTklL1NnKGdO7oT+ZP8A5KftOYM6OE6nic7F9fwPfbgdCQ72rqcVKcpSVLfLKpxi8OSXObT18i6We1ks6nrT1NPY0eX7n2kI1LVUc+PQlNSjxuEpOUZdWtrzHqjTrtuo7+0blCypq3tnL93ehIW9SnVpRUadbfZgtUYVFjOFxJp7OLDPKtnt+6bpGMpUbeLTlTzVqY+i2sRj14y+zlPDNm/QbdNXNCukqjsGyrYbKNmUxBsqyWVYAZDYbKtgGRo2/lb1qVaHCpTU8c5fSj1NZXnO90qqnGMovMZpSi+VNZTPzyzu25mWbKyb2+DUP8cTSxaVk/A3cI9qNoADTNwAAAAAAAAAAAAAAAAAA8z3Qv4J/wDLT9rOXNnU93lCdSzcacJ1Jd8g97TjKcsa9eFrOcvQ119lr+gq+6dDCtKn4s5+Ki3UyXYjGtbmpSmp05yhOOyUHh9XSug29XdlfSjve/Y4nKNOmpvz41eYwHoa6+y1/QVfdKvQt19kr+gq+6ZpKDzdmYY/EWSuuZgzm225NuUm23Jtybe1tvayjZnvQt39kr+hq+6Q9C3f2S49BV90trLeRqS3GubIZnz0NdJNu1rpJNtujUSSW1t73UjXNkpp7GQ01tDZDZLZVsEBso2GyrYJDZ3bcv8AwNj92ofgicHbO8bl/wCBsfu1D8ETUxfVXebeF2s2oANE3QAAAAAAAAAAaXdDp+nZwTl49Safe6aeG/8Ac3xRJjFydkRKSirs285qKbk0ktbbeEl0s01zursqbw66k/8AxRlUX9UU16zm+ltL1rmW+q1G1nMacdVKHVH83r6TXs3YYRbZPkaU8W/8VzOnvdxZ86p6KRHx5s+dU9Gzl7ZVsv0SnxKdKqcDqPx7sudU9FIfHuy51T0UjljZDY6LT4jpVTgdT+PllzqnopD4+WXOqeikcpbKtjotPiOlVOB1f4/WXOqeikR8f7HnVPRSOUNlWOi0+JPSqnA6jpDdzZTo1YRlU306c4RzSljfOLSOWhsq2ZKdKNPYYqlWU9obKNktlWzIUIbKtktlWwSQ2d53LvFhZdFrQ/xxOCneNzP+n2f3Wj/jRp4zqpm1hOszP8Nhy+oeGw5fUa4HlFpKvw5fk6/wYmy8MhyvsZ9YTT2NPqNQIzaeU8PoLw0nUT+uKa4ZerZDoLsZugY1pX3617VtMk7FOpGpFSi7pmu007MAAuQYmkbuNClUqz4NOLk+V8kV0t4XnOQaRvp16k6tV5nN56IriiuhHtO6TeNU6NBPhydSfkx1RT87b/lPAs6GFhaOt2v0Ofip3lq9i9QyrZLKtm0apDZVslshsAhsq2S2VbIJDZRhlWAGQw2Q2AGyjYbKtgkNlWw2VbBIbKsMEAHeNzP+n2f3Wj/jRwc7zucWLCzT1NWtDPR+zRqYzqc/Q28J1mUIyCMng+w7gIyMkEEl6NTeSUlxbenlNynxrjNDk21hUzBdGr9PVg6miq31SpvtzX3+3IwV45KRlAA7hqnLd3lzv72ceKlCFJdm+f4/UecbM7Ttbf3VzPlrVceSpNL1JGvbOvTVoJcEcio7zb4hsq2GyGy5QNlWw2VbIJDZRslsqwAyrYYbAIbKtktlGwCGyGw2VbBYNlWw2QQAAEu16kltb5ADJ0bYyuK1KjDhVZxprH0U9supLL8x3yulClvY6koqEV0JYx2Hke57uTlbLwm4jivUjvadN7aNN7W+Sb9S1cbR6W+rb6WFsj6+k4mlcWoU3Z70u97eR08HRazftGNkjIyQeROqMkZGSpUkkz9FT1zj0Jr8/wAjXGVo6WKiXKmvzNjBT1cRDvtzy+5WqrwZuQAerOecLrT30pS50nLteT5tlqsd7KUea2uxlGztHFDZVsNlWyCQ2UbJbKMANkMlJtpJNttJJJttvYkuNnR9y24aEFGreRU6j1xovDp0/L58ujZ17SlSpGCuzJTpubsjwujtC3NzroUJzjz8KMP65YXrN7T7nl7JZc6MeiVSef7Ys6fO4hDxeTVhbF0Hxd8+KK87OTV0tTg7XS7k2b8MCrZ5+Rzh9ze8+tt/SVvcK/Jte/W2/pK3uHSfDpc32jw6XN9pi+dU9/7WZOgrd5nNvk1vfrbf0lb3Cr7md59bbekre4dL8OlzfaPDpc32kfOae/8Aax0FbvM5n8md79bb+kre4Pkzvfrbb0lb3Dpfh8uavWPD5c32j51T3/tY6Ct3mc6tu5hcN/tbilBctJTqPsaiew0BuNtbJqok6tWOvvtbDcPJWyPXt6TZyvpcSx2mNVrSlwm37Ow16+motWjd+S/nyMlPBKLvb7mTd3mfFhs45GGRkZOBXrzrS1p/0b0YqKsiMkAgwFxkgEZK3JB9rN/tKfWvWfDJ9LP95Dyl7S9F/wDpD/peolsZ6EAHszlnE9O0t5dXMObWq48nfNr1YMBs9Fu/tu931R8VWFOquzev1wZ5xs68HeKfA5FRWk1xZDZVslsoyxUMqwyVFtpRWZSaUVyyexAHve5roFSze1Y5w3C3T2ZWqVX2xXVLoPcXdx9GPnYs7aNvQp0o8GjTjBdLSxl9b1mEeX0ri5X1Yvb6fn+TuYWiox97QADgm4ACMgEkZIIyVuSSRkjJGStybElcjJBFyQRkEFCwIBGSpIyRkZIyVuSMmRo9Zqw6M+pMxcmx0LDMpy5Pa/8A4bGChr4inHinyz+xSq7QbNwAD2JzDwXdRs/Ft66XBcqMv5vGj+GXac+bO3ac0crm3q0Hq75HxZP6M1rjLzNI4lcUpU5ThOLjOEnCcXtjJPDR0MLO8NXcc/FQtPW3+p82yGGVZtGsGzM0Is3NonsdxQT6t/EwmzM0G/nVp94ofjiVlsfcWh1kdwvuA+tGuNjf8DsNceJ0l+t4L1Z6Gj1QAQaBlGSMjJXJUmxOSMkEZK3LEkZIIyVuSCAQVbJRJGSMkZKkjJGRkjJS5YZIySQVbJIN7oylvaaztl4z8+z1YNPaUN/OMeJ630I9KdzQ1C8pVn/yvV8sl4s1MVPJRAAPQGkDxe7fco7j5xbpd/xicNSVaK2NPnpauldR7QFoTcHdFZwU1Zn5+qwlCUozi4zi8SjNOMovkaetMo2dx0poS3ul84oxqNLClrjUS5FOOGl5zQ1e51ZyeVKvBckakWv7otm7HFRazVjSlhZrY7nKmzL0C/nVn94t/wAcTo/yb2f1tx/XS9wva9z21p1KdSNSu5UqkKsVKdNxcoSUkn4mzUS8TTaa+wjhpp3y5nqL7gdhrcmy0hwGazJ5DSX6/gvudqj1QRkZIOcZhkgjJBVskkgmCy4rlNn8HQ6e0z0MJUrpuFst7KTqRhtNUQbX4Ohyy7V+hHwbDll2r9DP8qxHDn+CPjw9o1WSMm2+DYcsu1foPguHLLt/6K/KsRw5/gnpFP2jUZK5Nx8Fw5Zdv/Q+Cqf+7tX6EfKMTw5/gnpFP2jTZIN18E0+WXav0HwTT5Zdq/Qj5RieHP8ABPSaftGlJhFtpJZb2JbWblaKp9L62ZVG3hDgxS/MvT0NVb+uSS4Zv0t72FZYqNskfDR1p3uOvhPb1GaAehpUo0oKEFZI0pScndgAGQqAAAAAAAAAYukeA+tGrybTSP7t9aNVk89pT9fwX3Nyh1RkjIyVOaZiSMkArcsE8bNqPr4VU577T45K5JjUnHqya7m0HFPaffwupz2R4XU577T4ZCTbwllvYlrbHx6v+75y/kakdx9vDKnPZHhlT6x9pMrGqlneauhpvs2mMyZ1MRDruS73JeojGD2WZ9/DKn1j7Te2zbhBvW3FNvleDzZ6S14EPJj7EdTQ9Sc5z1pN5La2+3iYMVFKKsu0+wAO+aQAAAAAAAAAAAAAAAAABiaS/dvrRqTd3NPfQlHlRo2ef0tFqrGXY16PP1RuYd3i0MkAjJybmwCMjJGSrZYZIyRkjJVsknJt9EUkoKf0p519Txj1GmNtoi4W9VN7U210p6/1OhopwWJWtudu/Lztcw4lPUyNoafTNBJxmtWdUul8T9puDSaXuVJqEXqjltrZnkOzpZwWGkpeHf8A1e/C5q4dP4isYB6S14EPJj7DztKm5yjFbZf+5PTRjhJLYlhGhoSDvOfZkvHb5IzYt5JFgAegNIAAAAAAAAAAAAAAAAAAGuvrPOZxWv6S5TYgw16EK8NSezzT3r3weRaMnF3R5tlcm9uLSE9q18qNfV0ZNcFqXqPO19G16b+la64beW3lc3YV4S25GDkjJerRlHhRx0vPtPmc2X0u0lZ8TYWewnJAIKXJAB9adtUlwYZ6cYXayYRdR2itZ8FfyQbSzeRV15tYcm1yN6ikIttJLLexLabGjop/TkkuRfqbKhbRgvFWOXjbOrR0XiKzTqvVXHN8s7eOzia0sRCOUczH0fZbxZlrm+xGeAeio0YUYKEFZL3zNKUnJ3YABlKgAAAAAAAAAAAAAAAAAAAAAAAA+U6EZbYp+bJ9QGr5MGP4HT5iCs6fMXZkyAYvgUv9FyRbXlv82fOFNR2JLqSPoAZVkrFQAAAAAAAAAAAAAAAAAAAAAAAAAAACGUYBfJXfnzZVgH174O+HyZUA+3fB3w+JABkd8J35jkoA++/LZPgiyAPsD5ougCQAAAAAAAAAAAf/2Q==;" vertex="1" parent="1">
          <mxGeometry x="284.61" y="680" width="34" height="37.34" as="geometry" />
        </mxCell>
        <mxCell id="qoSOczia6jzgLVWpltz3-55" value="Update / Import Invoke" style="text;html=1;strokeColor=none;fillColor=none;align=center;verticalAlign=middle;whiteSpace=wrap;rounded=0;" vertex="1" parent="1">
          <mxGeometry x="271.11" y="730" width="60" height="30" as="geometry" />
        </mxCell>
        <mxCell id="qoSOczia6jzgLVWpltz3-56" value="" style="endArrow=classic;startArrow=classic;html=1;rounded=0;entryX=0.5;entryY=1;entryDx=0;entryDy=0;" edge="1" parent="1" target="qoSOczia6jzgLVWpltz3-46">
          <mxGeometry width="50" height="50" relative="1" as="geometry">
            <mxPoint x="302" y="670" as="sourcePoint" />
            <mxPoint x="290" y="640" as="targetPoint" />
          </mxGeometry>
        </mxCell>
        <mxCell id="qoSOczia6jzgLVWpltz3-57" value="" style="image;html=1;image=img/lib/clip_art/computers/Server_Rack_128x128.png" vertex="1" parent="1">
          <mxGeometry x="590" y="529.5" width="80" height="80" as="geometry" />
        </mxCell>
        <mxCell id="qoSOczia6jzgLVWpltz3-58" value="" style="outlineConnect=0;dashed=0;verticalLabelPosition=bottom;verticalAlign=top;align=center;html=1;shape=mxgraph.aws3.s3;fillColor=#E05243;gradientColor=none;" vertex="1" parent="1">
          <mxGeometry x="272.11" y="508.5" width="20" height="21" as="geometry" />
        </mxCell>
        <mxCell id="qoSOczia6jzgLVWpltz3-60" value="Sync from on Prem to S3" style="text;html=1;strokeColor=none;fillColor=none;align=center;verticalAlign=middle;whiteSpace=wrap;rounded=0;" vertex="1" parent="1">
          <mxGeometry x="455" y="560" width="60" height="30" as="geometry" />
        </mxCell>
        <mxCell id="qoSOczia6jzgLVWpltz3-62" value="Object Store" style="text;html=1;strokeColor=none;fillColor=none;align=center;verticalAlign=middle;whiteSpace=wrap;rounded=0;" vertex="1" parent="1">
          <mxGeometry x="292.11" y="504" width="60" height="30" as="geometry" />
        </mxCell>
      </root>
    </mxGraphModel>
  </diagram>
</mxfile>
